<svg width="21" height="20" viewBox="0 0 21 20" fill="none" xmlns="http://www.w3.org/2000/svg">
<mask id="mask0_149_4338" style="mask-type:luminance" maskUnits="userSpaceOnUse" x="0" y="0" width="21" height="20">
<path d="M0.504883 0H20.5049V20H0.504883V0Z" fill="white"/>
</mask>
<g mask="url(#mask0_149_4338)">
<path d="M0.504883 17.9961C0.504883 18.0288 0.505718 18.0616 0.507668 18.0943C0.509478 18.1269 0.512264 18.1595 0.516024 18.192C0.519644 18.2246 0.52424 18.2571 0.52981 18.2894C0.535381 18.3218 0.541787 18.3541 0.549168 18.3861C0.556548 18.4182 0.564765 18.4502 0.573956 18.4819C0.583147 18.5136 0.593313 18.5452 0.604175 18.5764C0.615177 18.6077 0.627014 18.6387 0.639687 18.6696C0.652499 18.7003 0.666007 18.731 0.68049 18.7611C0.694973 18.7914 0.710292 18.8213 0.726446 18.8508C0.7426 18.8805 0.75959 18.9096 0.777276 18.9384C0.795101 18.9674 0.813762 18.9958 0.833119 19.0238C0.852616 19.0519 0.872808 19.0795 0.893697 19.1067C0.914726 19.1339 0.93645 19.1606 0.95901 19.1869C0.981431 19.2132 1.00469 19.239 1.02864 19.2643C1.05259 19.2896 1.07724 19.3144 1.10259 19.3386C1.12807 19.3628 1.15411 19.3866 1.18071 19.4096C1.20745 19.4328 1.23475 19.4553 1.26274 19.4774C1.29073 19.4993 1.31942 19.5206 1.34852 19.5414C1.37777 19.5621 1.40757 19.5822 1.43779 19.6018C1.46815 19.6213 1.49906 19.6401 1.5304 19.6582C1.56187 19.6764 1.59376 19.6939 1.62621 19.7108C1.65851 19.7275 1.69138 19.7437 1.72466 19.7591C1.75795 19.7745 1.79179 19.7893 1.82591 19.8032C1.86002 19.8172 1.89456 19.8305 1.92938 19.843C1.96433 19.8556 1.99956 19.8673 2.03507 19.8784C2.07073 19.8893 2.10651 19.8996 2.14272 19.9091C2.17879 19.9186 2.21514 19.9273 2.25176 19.9353C2.28839 19.9432 2.32529 19.9503 2.36234 19.9567C2.39938 19.9631 2.43656 19.9688 2.47388 19.9735C2.51134 19.9783 2.54881 19.9823 2.58641 19.9855C2.62387 19.9888 2.66161 19.9912 2.69935 19.9928C2.73709 19.9943 2.77482 19.9952 2.81256 19.9952H13.5818C13.6196 19.9952 13.6573 19.9943 13.6951 19.9928C13.7328 19.9912 13.7704 19.9888 13.808 19.9855C13.8456 19.9823 13.8831 19.9783 13.9204 19.9735C13.9577 19.9688 13.9949 19.9631 14.0319 19.9567C14.069 19.9503 14.1059 19.9432 14.1425 19.9353C14.1791 19.9273 14.2155 19.9186 14.2517 19.9091C14.2877 19.8996 14.3237 19.8893 14.3592 19.8784C14.3947 19.8673 14.4299 19.8556 14.4649 19.843C14.4998 19.8305 14.5342 19.8172 14.5685 19.8032C14.6026 19.7893 14.6363 19.7745 14.6696 19.7591C14.7029 19.7437 14.7357 19.7275 14.7682 19.7108C14.8005 19.6939 14.8324 19.6764 14.8639 19.6582C14.8952 19.6401 14.9261 19.6213 14.9565 19.6018C14.9868 19.5822 15.0165 19.5621 15.0457 19.5414C15.075 19.5206 15.1035 19.4993 15.1315 19.4774C15.1595 19.4553 15.1868 19.4328 15.2136 19.4096C15.2403 19.3866 15.2663 19.3628 15.2917 19.3386C15.317 19.3144 15.3417 19.2896 15.3656 19.2643C15.3896 19.239 15.4128 19.2132 15.4354 19.1869C15.4578 19.1606 15.4795 19.1339 15.5006 19.1067C15.5216 19.0795 15.5418 19.0519 15.5611 19.0238C15.5805 18.9958 15.5992 18.9674 15.617 18.9384C15.6348 18.9096 15.6518 18.8805 15.668 18.8508C15.6841 18.8213 15.6993 18.7914 15.7138 18.7611C15.7283 18.731 15.7419 18.7003 15.7546 18.6696C15.7672 18.6387 15.7791 18.6077 15.7901 18.5764C15.8011 18.5452 15.8111 18.5136 15.8203 18.4819C15.8295 18.4502 15.8377 18.4182 15.8451 18.3861C15.8525 18.3541 15.8589 18.3218 15.8645 18.2894C15.87 18.2571 15.8746 18.2246 15.8784 18.192C15.882 18.1595 15.8848 18.1269 15.8867 18.0943C15.8885 18.0616 15.8895 18.0288 15.8895 17.9961V17.3298H18.1972C18.2349 17.3298 18.2727 17.3289 18.3104 17.3274C18.3482 17.3258 18.3858 17.3234 18.4234 17.3201C18.461 17.317 18.4984 17.313 18.5357 17.3082C18.5731 17.3034 18.6104 17.2977 18.6474 17.2914C18.6845 17.285 18.7212 17.2778 18.7579 17.2698C18.7945 17.2619 18.8308 17.2532 18.867 17.2437C18.9033 17.2342 18.939 17.2239 18.9746 17.2129C19.0102 17.2018 19.0454 17.1902 19.0802 17.1776C19.1152 17.1651 19.1497 17.1518 19.1839 17.1378C19.218 17.1238 19.2517 17.1091 19.285 17.0937C19.3182 17.0783 19.3511 17.0622 19.3836 17.0454C19.416 17.0286 19.4479 17.0111 19.4792 16.9929C19.5107 16.9747 19.5415 16.9559 19.5718 16.9364C19.6022 16.917 19.632 16.8968 19.6611 16.876C19.6903 16.8552 19.7189 16.8339 19.7469 16.8119C19.7749 16.79 19.8022 16.7675 19.8289 16.7443C19.8557 16.7212 19.8817 16.6974 19.907 16.6732C19.9324 16.6489 19.957 16.6242 19.981 16.5989C20.0049 16.5736 20.0282 16.5478 20.0508 16.5216C20.0732 16.4953 20.0949 16.4686 20.1159 16.4413C20.137 16.4142 20.1572 16.3865 20.1765 16.3585C20.196 16.3304 20.2145 16.302 20.2324 16.273C20.2502 16.2442 20.2672 16.215 20.2833 16.1855C20.2995 16.1558 20.3148 16.1259 20.3291 16.0958C20.3436 16.0655 20.3573 16.035 20.3699 16.0042C20.3826 15.9734 20.3944 15.9423 20.4055 15.9111C20.4165 15.8798 20.4265 15.8482 20.4357 15.8165C20.4449 15.7847 20.4531 15.7528 20.4605 15.7207C20.4678 15.6887 20.4744 15.6565 20.4798 15.624C20.4854 15.5917 20.49 15.5593 20.4937 15.5267C20.4975 15.4942 20.5001 15.4615 20.5021 15.4288C20.5039 15.3962 20.5049 15.3635 20.5049 15.3307V2.00388C20.5049 1.97121 20.5039 1.93842 20.5021 1.90574C20.5001 1.87307 20.4975 1.84052 20.4937 1.80797C20.49 1.77541 20.4854 1.74286 20.4798 1.71055C20.4744 1.67824 20.4678 1.64593 20.4605 1.61386C20.4531 1.58179 20.4449 1.54984 20.4357 1.51813C20.4265 1.48642 20.4165 1.45484 20.4055 1.42361C20.3944 1.39226 20.3826 1.36128 20.3699 1.33042C20.3573 1.29967 20.3436 1.26905 20.3291 1.23891C20.3148 1.20865 20.2995 1.17875 20.2833 1.14921C20.2672 1.11955 20.2502 1.09037 20.2324 1.06156C20.2145 1.03262 20.196 1.00417 20.1765 0.9762C20.1572 0.948109 20.137 0.9205 20.1159 0.893253C20.0949 0.866126 20.0732 0.839361 20.0508 0.813078C20.0282 0.786795 20.0049 0.760995 19.981 0.735676C19.957 0.710358 19.9324 0.685643 19.907 0.661409C19.8817 0.637176 19.8557 0.613425 19.8289 0.590398C19.8022 0.567249 19.7749 0.544704 19.7469 0.522641C19.7189 0.500699 19.6903 0.479359 19.6611 0.458622C19.632 0.437885 19.6022 0.417751 19.5718 0.39822C19.5415 0.378689 19.5107 0.359881 19.4792 0.341796C19.4479 0.323591 19.416 0.306109 19.3836 0.289231C19.3511 0.272472 19.3182 0.256317 19.285 0.240885C19.2517 0.225453 19.218 0.210744 19.1839 0.196759C19.1497 0.182773 19.1152 0.169511 19.0802 0.156973C19.0454 0.144434 19.0102 0.132739 18.9746 0.121648C18.939 0.110676 18.9033 0.100428 18.867 0.090904C18.8308 0.0813795 18.7945 0.0726989 18.7579 0.0647417C18.7212 0.0567846 18.6845 0.0496713 18.6474 0.0432815C18.6104 0.0368916 18.5731 0.0312251 18.5357 0.0265232C18.4984 0.0217006 18.461 0.0177221 18.4234 0.0144668C18.3858 0.0112116 18.3482 0.00880036 18.3104 0.00723304C18.2727 0.00566573 18.2349 0.00482178 18.1972 0.00482178H7.42793C7.39019 0.00482178 7.35245 0.00566573 7.31471 0.00723304C7.27697 0.00880036 7.23937 0.0112116 7.20177 0.0144668C7.16417 0.0177221 7.12671 0.0217006 7.08939 0.0265232C7.05193 0.0312251 7.01474 0.0368916 6.9777 0.0432815C6.94066 0.0496713 6.90389 0.0567846 6.86727 0.0647417C6.8305 0.0726989 6.79415 0.0813795 6.75809 0.090904C6.72188 0.100428 6.68609 0.110676 6.65044 0.121648C6.61493 0.132739 6.57969 0.144434 6.54488 0.156973C6.50992 0.169511 6.47539 0.182773 6.44127 0.196759C6.40715 0.210744 6.37345 0.225453 6.34003 0.240885C6.30674 0.256317 6.27388 0.272472 6.24157 0.289231C6.20912 0.306109 6.17723 0.323591 6.1459 0.341796C6.11443 0.359881 6.08351 0.378689 6.05329 0.39822C6.02293 0.417751 5.99313 0.437885 5.96388 0.458622C5.93478 0.479359 5.90609 0.500699 5.87824 0.522641C5.85025 0.544704 5.82281 0.567249 5.79608 0.590398C5.76948 0.613425 5.74344 0.637176 5.71809 0.661409C5.69275 0.685643 5.66796 0.710358 5.644 0.735676C5.62005 0.760995 5.59693 0.786795 5.57437 0.813078C5.55181 0.839361 5.53009 0.866126 5.5092 0.893253C5.48817 0.9205 5.46798 0.948109 5.44862 0.9762C5.42913 1.00417 5.41046 1.03262 5.39278 1.06156C5.37495 1.09037 5.35796 1.11955 5.34181 1.14921C5.32565 1.17875 5.31034 1.20865 5.29585 1.23891C5.28151 1.26905 5.26786 1.29967 5.25519 1.33042C5.24238 1.36128 5.23054 1.39226 5.21954 1.42361C5.20868 1.45484 5.19851 1.48642 5.18946 1.51813C5.18027 1.54984 5.17191 1.58179 5.16453 1.61386C5.15715 1.64593 5.15074 1.67824 5.14517 1.71055C5.1396 1.74286 5.13501 1.77541 5.13139 1.80797C5.12763 1.84052 5.12484 1.87307 5.12303 1.90574C5.12122 1.93842 5.12025 1.97121 5.12025 2.00388V2.67023H2.81256C2.77482 2.67023 2.73709 2.67108 2.69935 2.67265C2.66161 2.67421 2.62387 2.67662 2.58641 2.67988C2.54881 2.68301 2.51134 2.68699 2.47388 2.69182C2.43656 2.69664 2.39938 2.7023 2.36234 2.70857C2.32529 2.71496 2.28839 2.7222 2.25176 2.73015C2.21514 2.73811 2.17879 2.74679 2.14272 2.75632C2.10651 2.76584 2.07073 2.77609 2.03507 2.78706C1.99956 2.79815 1.96433 2.80985 1.92938 2.82239C1.89456 2.83492 1.86002 2.84819 1.82591 2.86217C1.79179 2.87616 1.75795 2.89087 1.72466 2.9063C1.69138 2.92173 1.65851 2.93776 1.62621 2.95464C1.59376 2.9714 1.56187 2.98888 1.5304 3.00709C1.49906 3.02529 1.46815 3.0441 1.43779 3.06363C1.40757 3.08304 1.37777 3.10318 1.34852 3.12403C1.31942 3.14477 1.29073 3.16611 1.26274 3.18805C1.23475 3.21 1.20745 3.23254 1.18071 3.25569C1.15411 3.27884 1.12807 3.30259 1.10259 3.32682C1.07724 3.35106 1.05259 3.37577 1.02864 3.40109C1.00469 3.42641 0.981431 3.45221 0.95901 3.47837C0.93645 3.50465 0.914726 3.53142 0.893697 3.55867C0.872808 3.58579 0.852616 3.61352 0.833119 3.64149C0.813762 3.66958 0.795101 3.69804 0.777276 3.72697C0.75959 3.75579 0.7426 3.78496 0.726446 3.8145C0.710292 3.84416 0.694973 3.87406 0.68049 3.9042C0.666007 3.93446 0.652499 3.96496 0.639687 3.99583C0.627014 4.02657 0.615177 4.05768 0.604175 4.0889C0.593313 4.12025 0.583147 4.15184 0.573956 4.18355C0.564765 4.21525 0.556548 4.2472 0.549168 4.27927C0.541787 4.31134 0.535381 4.34353 0.52981 4.37596C0.52424 4.40828 0.519644 4.44071 0.516024 4.47326C0.512264 4.50581 0.509478 4.53848 0.507668 4.57116C0.505718 4.60383 0.504883 4.6365 0.504883 4.66929V17.9961ZM6.65865 2.00388C6.65865 1.98206 6.65991 1.96024 6.66241 1.93854C6.66492 1.91683 6.66854 1.89525 6.67342 1.87391C6.67843 1.85245 6.68456 1.83136 6.6918 1.8105C6.69918 1.78952 6.70767 1.76902 6.71728 1.74889C6.72689 1.72876 6.73761 1.70898 6.74959 1.68981C6.76143 1.67052 6.77438 1.65184 6.78831 1.63363C6.80237 1.61555 6.81727 1.59807 6.83329 1.58119C6.8493 1.56431 6.86615 1.54815 6.88398 1.53272C6.9018 1.51729 6.92046 1.50258 6.93996 1.48884C6.95946 1.47497 6.97965 1.46195 7.00054 1.44977C7.02157 1.43772 7.04315 1.4265 7.06529 1.41626C7.08758 1.40589 7.11028 1.3966 7.13353 1.38829C7.15679 1.37985 7.18046 1.37261 7.20469 1.36622C7.22879 1.35983 7.25316 1.35465 7.2778 1.35031C7.30259 1.34609 7.32752 1.34283 7.35259 1.34078C7.37766 1.33861 7.40272 1.33753 7.42793 1.33753H18.1972C18.2224 1.33753 18.2475 1.33861 18.2725 1.34078C18.2976 1.34283 18.3225 1.34609 18.3472 1.35031C18.372 1.35465 18.3963 1.35983 18.4204 1.36622C18.4445 1.37261 18.4682 1.37985 18.4915 1.38829C18.5149 1.3966 18.5376 1.40589 18.5598 1.41626C18.582 1.4265 18.6036 1.43772 18.6245 1.44977C18.6455 1.46195 18.6657 1.47497 18.6852 1.48884C18.7047 1.50258 18.7233 1.51729 18.7412 1.53272C18.7588 1.54815 18.7758 1.56431 18.7918 1.58119C18.8077 1.59807 18.8228 1.61555 18.8367 1.63363C18.8507 1.65184 18.8637 1.67052 18.8755 1.68981C18.8874 1.70898 18.8982 1.72876 18.9078 1.74889C18.9175 1.76902 18.926 1.78952 18.9333 1.8105C18.9406 1.83136 18.9467 1.85245 18.9516 1.87391C18.9566 1.89525 18.9602 1.91683 18.9627 1.93854C18.9652 1.96024 18.9663 1.98206 18.9663 2.00388V15.3307C18.9663 15.3525 18.9652 15.3743 18.9627 15.3961C18.9602 15.4178 18.9566 15.4393 18.9516 15.4608C18.9467 15.4821 18.9406 15.5034 18.9333 15.5242C18.926 15.5451 18.9175 15.5656 18.9078 15.5857C18.8982 15.606 18.8874 15.6256 18.8755 15.6449C18.8637 15.6641 18.8507 15.6828 18.8367 15.701C18.8228 15.719 18.8077 15.7366 18.7918 15.7535C18.7758 15.7704 18.7588 15.7866 18.7412 15.802C18.7233 15.8174 18.7047 15.832 18.6852 15.8459C18.6657 15.8597 18.6455 15.8726 18.6245 15.8848C18.6036 15.8969 18.582 15.9081 18.5598 15.9185C18.5376 15.9287 18.5149 15.938 18.4915 15.9464C18.4682 15.9547 18.4445 15.9621 18.4204 15.9684C18.3963 15.9748 18.372 15.9801 18.3472 15.9843C18.3225 15.9885 18.2976 15.9918 18.2725 15.9939C18.2475 15.996 18.2224 15.9971 18.1972 15.9971H15.8895V4.66929C15.8895 4.6365 15.8885 4.60383 15.8867 4.57116C15.8848 4.53848 15.882 4.50581 15.8784 4.47326C15.8746 4.44071 15.87 4.40828 15.8645 4.37596C15.8589 4.34353 15.8525 4.31134 15.8451 4.27927C15.8377 4.2472 15.8295 4.21525 15.8203 4.18355C15.8111 4.15184 15.8011 4.12025 15.7901 4.0889C15.7791 4.05768 15.7672 4.02657 15.7546 3.99583C15.7419 3.96496 15.7283 3.93446 15.7138 3.9042C15.6993 3.87406 15.6841 3.84416 15.668 3.8145C15.6518 3.78496 15.6348 3.75579 15.617 3.72685C15.5992 3.69804 15.5805 3.66958 15.5611 3.64149C15.5418 3.61352 15.5216 3.58579 15.5006 3.55867C15.4795 3.53142 15.4578 3.50465 15.4354 3.47837C15.4128 3.45221 15.3896 3.42641 15.3656 3.40109C15.3417 3.37577 15.317 3.35106 15.2917 3.32682C15.2663 3.30259 15.2403 3.27884 15.2136 3.25569C15.1868 3.23254 15.1595 3.21 15.1315 3.18805C15.1035 3.16611 15.075 3.14477 15.0457 3.12403C15.0165 3.10318 14.9868 3.08304 14.9565 3.06363C14.9261 3.0441 14.8952 3.02529 14.8639 3.00709C14.8324 2.98888 14.8005 2.9714 14.7682 2.95464C14.7357 2.93776 14.7029 2.92173 14.6696 2.9063C14.6363 2.89087 14.6026 2.87616 14.5685 2.86217C14.5342 2.84819 14.4998 2.83492 14.4649 2.82239C14.4299 2.80985 14.3947 2.79815 14.3592 2.78706C14.3237 2.77609 14.2877 2.76584 14.2517 2.75632C14.2155 2.74679 14.1791 2.73811 14.1425 2.73015C14.1059 2.7222 14.069 2.71496 14.0319 2.70857C13.9949 2.7023 13.9577 2.69664 13.9204 2.69182C13.8831 2.68699 13.8456 2.68301 13.808 2.67988C13.7704 2.67662 13.7328 2.67421 13.6951 2.67265C13.6573 2.67108 13.6196 2.67023 13.5818 2.67023H6.65865V2.00388ZM2.04329 4.66929C2.04329 4.64747 2.04454 4.62565 2.04705 4.60395C2.04942 4.58225 2.05318 4.56067 2.05805 4.53921C2.06307 4.51787 2.06905 4.49665 2.07643 4.47579C2.08382 4.45493 2.09217 4.43444 2.10192 4.4143C2.11153 4.39405 2.12225 4.3744 2.13409 4.35511C2.14606 4.33594 2.15902 4.31725 2.17294 4.29904C2.18701 4.28096 2.20191 4.26336 2.21792 4.24648C2.23394 4.2296 2.25079 4.21344 2.26861 4.19801C2.28644 4.1827 2.3051 4.16799 2.3246 4.15413C2.34395 4.14026 2.36429 4.12736 2.38517 4.11519C2.40606 4.10313 2.42765 4.09192 2.44993 4.08155C2.47221 4.0713 2.49491 4.06202 2.51817 4.05358C2.54142 4.04526 2.5651 4.0379 2.58919 4.03164C2.61342 4.02525 2.63779 4.01994 2.66244 4.01572C2.68723 4.0115 2.71202 4.00825 2.73709 4.00608C2.76215 4.00403 2.78736 4.00294 2.81256 4.00294H13.5818C13.6069 4.00294 13.6321 4.00403 13.6572 4.00608C13.6822 4.00825 13.7072 4.0115 13.7318 4.01572C13.7566 4.01994 13.781 4.02525 13.8051 4.03164C13.8292 4.0379 13.8528 4.04526 13.8761 4.05358C13.8994 4.06202 13.9222 4.0713 13.9443 4.08155C13.9666 4.09192 13.9882 4.10313 14.0091 4.11519C14.0301 4.12736 14.0503 4.14026 14.0698 4.15413C14.0893 4.16799 14.1078 4.18258 14.1256 4.19801C14.1435 4.21344 14.1605 4.2296 14.1763 4.24648C14.1924 4.26336 14.2074 4.28096 14.2213 4.29904C14.2354 4.31725 14.2483 4.33594 14.2602 4.35511C14.272 4.3744 14.2829 4.39405 14.2925 4.4143C14.3021 4.43444 14.3106 4.45493 14.3178 4.47579C14.3252 4.49665 14.3313 4.51787 14.3362 4.53921C14.3411 4.56067 14.3448 4.58225 14.3474 4.60395C14.3497 4.62565 14.351 4.64747 14.351 4.66929V17.9961C14.351 18.0179 14.3497 18.0398 14.3474 18.0615C14.3448 18.0832 14.3411 18.1047 14.3362 18.1261C14.3313 18.1475 14.3252 18.1686 14.3178 18.1895C14.3106 18.2105 14.3021 18.231 14.2925 18.2511C14.2829 18.2712 14.272 18.291 14.2602 18.3102C14.2483 18.3295 14.2354 18.3482 14.2213 18.3664C14.2074 18.3845 14.1924 18.4019 14.1763 18.4188C14.1605 18.4357 14.1435 18.4518 14.1256 18.4673C14.1078 18.4827 14.0893 18.4974 14.0698 18.5112C14.0503 18.525 14.0301 18.5381 14.0091 18.5502C13.9882 18.5623 13.9666 18.5735 13.9443 18.5837C13.9222 18.5941 13.8994 18.6034 13.8761 18.6117C13.8528 18.6202 13.8292 18.6274 13.8051 18.6338C13.781 18.6402 13.7566 18.6454 13.7318 18.6497C13.7072 18.6539 13.6822 18.6572 13.6572 18.6592C13.6321 18.6614 13.6069 18.6625 13.5818 18.6625H2.81256C2.78736 18.6625 2.76215 18.6614 2.73709 18.6592C2.71202 18.6572 2.68723 18.6539 2.66244 18.6497C2.63779 18.6454 2.61342 18.6402 2.58919 18.6338C2.5651 18.6274 2.54142 18.6202 2.51817 18.6117C2.49491 18.6034 2.47221 18.5941 2.44993 18.5837C2.42765 18.5735 2.40606 18.5623 2.38517 18.5502C2.36429 18.5381 2.34395 18.525 2.3246 18.5112C2.3051 18.4974 2.28644 18.4827 2.26861 18.4673C2.25079 18.4518 2.23394 18.4357 2.21792 18.4188C2.20191 18.4019 2.18701 18.3845 2.17294 18.3664C2.15902 18.3482 2.14606 18.3295 2.13409 18.3102C2.12225 18.291 2.11153 18.2712 2.10192 18.2511C2.09217 18.231 2.08382 18.2105 2.07643 18.1895C2.06905 18.1686 2.06307 18.1475 2.05805 18.1261C2.05318 18.1047 2.04942 18.0832 2.04705 18.0615C2.04454 18.0398 2.04329 18.0179 2.04329 17.9961V4.66929Z" fill="black"/>
</g>
</svg>
