<svg width="50" height="38" viewBox="0 0 50 38" fill="none" xmlns="http://www.w3.org/2000/svg">
<path d="M43.268 17.7872L42.2092 18.9808L19.2805 7.24302L20.3393 6.04965C20.8249 5.50062 21.8092 5.3542 22.5287 5.72327L42.8388 16.121C43.561 16.4901 43.7536 17.2384 43.268 17.7872ZM35.8821 26.1221L37.0462 19.8069L40.0941 21.3677L35.8821 26.1221ZM33.7233 31.5992C33.6025 32.2536 32.8034 32.7127 31.9423 32.6209L7.69269 30.0386C6.83187 29.9468 6.22543 29.3373 6.34865 28.6829L7.83664 20.6059L35.2139 23.5242L33.7233 31.5992ZM8.62561 16.332C8.74641 15.6757 9.54574 15.2185 10.4066 15.3103L34.6562 17.8946C35.5197 17.9846 36.1237 18.5921 36.0002 19.2483L35.7381 20.6722L8.36085 17.7559L8.62561 16.332ZM17.168 9.63011L30.8039 16.6113L12.6912 14.6794L17.168 9.63011ZM43.4735 15.4062L23.1663 5.00839C21.9249 4.37359 20.2339 4.62172 19.396 5.56714L11.4371 14.5467L10.566 14.4549C9.08302 14.2965 7.70812 15.0856 7.50003 16.2129L5.22572 28.5619C5.01498 29.689 6.05327 30.7339 7.53354 30.8922L31.7829 33.4765C33.2658 33.6347 34.6407 32.8435 34.8488 31.7185L35.5223 28.0736L44.2084 18.2677C45.0463 17.3261 44.7148 16.041 43.4735 15.4062Z" fill="white"/>
<path d="M20.9276 24.2508L32.6208 25.499L32.7493 24.7938L21.0588 23.5477L20.9276 24.2508Z" fill="white"/>
<path d="M20.6501 25.7744L32.3406 27.0187L32.4691 26.3136L20.7786 25.0672L20.6501 25.7744Z" fill="white"/>
</svg>
