<svg width="39" height="39" viewBox="0 0 39 39" fill="none" xmlns="http://www.w3.org/2000/svg">
<g id="Vector" filter="url(#filter0_d_732_6064)">
<path d="M25.6537 15.2222C25.2941 13.7652 24.1494 12.1992 21.7642 12.1992C19.8416 12.1992 19.0445 13.7823 18.5266 15.2222H14.9283C15.3676 14.3314 16.3652 14.2206 16.7319 14.2146C17.2851 14.2114 17.7336 13.7611 17.7336 13.2069C17.7336 12.6506 17.2822 12.1992 16.7259 12.1992C15.3052 12.1992 13.2788 13.0255 12.8001 15.2222H12.1915C11.6352 15.2222 11.1838 15.6736 11.1838 16.2299C11.1838 16.7862 11.6352 17.2375 12.1915 17.2375H12.8001C13.2788 19.4342 15.3052 20.2605 16.7259 20.2605C18.6485 20.2605 19.4457 18.6775 19.9635 17.2375H23.5478C23.3048 17.7464 22.8101 18.2452 21.7642 18.2452C21.2069 18.2452 20.7565 18.6965 20.7565 19.2528C20.7565 19.8101 21.2069 20.2605 21.7642 20.2605C24.1494 20.2605 25.2951 18.6946 25.6537 17.2375H26.2987C26.8559 17.2375 27.3063 16.7862 27.3063 16.2299C27.3063 15.6736 26.8559 15.2222 26.2987 15.2222H25.6537ZM16.7259 18.2452C16.4639 18.2452 15.3938 18.1736 14.9312 17.2375H17.795C17.4927 17.9126 17.1924 18.2452 16.7259 18.2452ZM20.6941 15.2222C20.9964 14.5471 21.2977 14.2146 21.7642 14.2146C22.8031 14.2146 23.2988 14.7083 23.5437 15.2222H20.6941ZM31.3369 18.2452V5.14565C31.3369 2.92779 29.5292 2.12268 28.314 2.12268H10.1762C7.9583 2.12268 7.15318 3.9304 7.15318 5.14565V18.2452H3.12256V24.2911H35.3676V18.2452H31.3369ZM7.15318 22.2758H5.13787V20.2605H7.15318V22.2758ZM9.1685 5.1577C9.18055 4.69217 9.36501 4.13799 10.1762 4.13799H10.9984C10.6942 4.99151 10.022 5.66367 9.1685 5.96787V5.1577ZM29.3216 22.2758H9.1685V8.06676C11.1395 7.66479 12.6953 6.10899 13.0973 4.13799H25.3928C25.7948 6.10899 27.3506 7.66479 29.3216 8.06676V22.2758ZM29.3216 5.96787C28.4681 5.66367 27.7959 4.99151 27.4917 4.13799H28.3019C28.7674 4.15004 29.3216 4.33451 29.3216 5.14565V5.96787ZM33.3522 22.2758H31.3369V20.2605H33.3522V22.2758ZM23.9881 28.617C24.3821 29.011 24.3821 29.6478 23.9881 30.0418L19.9575 34.0724C19.7609 34.2689 19.503 34.3677 19.2451 34.3677C18.9871 34.3677 18.7292 34.2689 18.5327 34.0724L14.502 30.0418C14.108 29.6478 14.108 29.011 14.502 28.617C14.896 28.223 15.5328 28.223 15.9268 28.617L18.2374 30.9276V26.3064C18.2374 25.7491 18.6887 25.2988 19.2451 25.2988C19.8014 25.2988 20.2527 25.7491 20.2527 26.3064V30.9276L22.5633 28.617C22.9573 28.223 23.5941 28.223 23.9881 28.617Z" fill="#514AF3"/>
</g>
<defs>
<filter id="filter0_d_732_6064" x="0.203923" y="0.663363" width="38.0824" height="38.0823" filterUnits="userSpaceOnUse" color-interpolation-filters="sRGB">
<feFlood flood-opacity="0" result="BackgroundImageFix"/>
<feColorMatrix in="SourceAlpha" type="matrix" values="0 0 0 0 0 0 0 0 0 0 0 0 0 0 0 0 0 0 127 0" result="hardAlpha"/>
<feOffset dy="1.45932"/>
<feGaussianBlur stdDeviation="1.45932"/>
<feComposite in2="hardAlpha" operator="out"/>
<feColorMatrix type="matrix" values="0 0 0 0 0 0 0 0 0 0 0 0 0 0 0 0 0 0 0.05 0"/>
<feBlend mode="normal" in2="BackgroundImageFix" result="effect1_dropShadow_732_6064"/>
<feBlend mode="normal" in="SourceGraphic" in2="effect1_dropShadow_732_6064" result="shape"/>
</filter>
</defs>
</svg>
