<svg width="54" height="54" viewBox="0 0 54 54" fill="none" xmlns="http://www.w3.org/2000/svg">
<g id="Fungi App Elements 1">
<g id="Clip path group">
<mask id="mask0_334_3010" style="mask-type:luminance" maskUnits="userSpaceOnUse" x="5" y="8" width="44" height="38">
<g id="d963064832">
<path id="Vector" d="M5.60059 8.18042H48.4006V45.7994H5.60059V8.18042Z" fill="white"/>
</g>
</mask>
<g mask="url(#mask0_334_3010)">
<g id="Group">
<path id="Vector_2" fill-rule="evenodd" clip-rule="evenodd" d="M24.4527 9.84587C22.166 13.8433 16.5173 23.8453 11.9788 31.8828L5.97409 42.5073C5.43372 43.4584 5.63554 44.2105 5.80351 44.574C6.14388 45.3102 6.87044 45.6774 7.43659 45.7766L7.55065 45.7961L46.3004 45.7972L46.2194 45.7943C46.8272 45.8316 47.6342 45.6125 48.0751 44.8875C48.3572 44.4219 48.5598 43.63 47.9181 42.5045L35.9207 21.542L29.2816 9.94691C28.4499 8.493 27.485 8.18701 26.8223 8.18701C26.1751 8.18701 25.2384 8.47451 24.4533 9.84587H24.4525H24.4527ZM14.341 33.2599C18.8788 25.225 24.5246 15.2266 26.8077 11.2357L26.835 11.1922C26.8645 11.2368 26.8926 11.2774 26.9254 11.336L33.5665 22.9331C33.5665 22.9331 44.1618 41.4474 45.0681 43.0302L8.81888 43.0292L14.3405 33.2599" fill="#2E2E2E"/>
</g>
</g>
</g>
<path id="Vector_3" fill-rule="evenodd" clip-rule="evenodd" d="M26.9852 41.0234C28.1592 41.0234 29.1105 40.0385 29.1105 38.8239C29.1105 37.6101 28.1592 36.6252 26.9852 36.6252C25.8097 36.6252 24.8584 37.6101 24.8584 38.8239C24.8584 40.0385 25.8097 41.0234 26.9852 41.0234Z" fill="#2E2E2E"/>
<path id="Vector_4" fill-rule="evenodd" clip-rule="evenodd" d="M26.9849 19.4773C28.681 19.4773 30.2393 21.0815 30.056 22.6541L28.6034 33.7161C28.462 34.6822 27.8787 35.3898 26.9849 35.3898C26.0912 35.3898 25.5063 34.6822 25.3664 33.7161L23.9133 22.6541C23.7289 21.0815 25.288 19.4773 26.9852 19.4773" fill="#2E2E2E"/>
</g>
</svg>
