<svg width="50" height="46" viewBox="0 0 50 46" fill="none" xmlns="http://www.w3.org/2000/svg">
<mask id="mask0_283_4312" style="mask-type:luminance" maskUnits="userSpaceOnUse" x="6" y="5" width="38" height="37">
<path d="M6.65002 5.05432H43.363V41.2864H6.65002V5.05432Z" fill="white"/>
</mask>
<g mask="url(#mask0_283_4312)">
<path d="M7.96079 17.7409C7.96079 15.5811 9.23297 13.5768 11.2811 12.51L21.7667 7.05063C22.7498 6.53952 23.8684 6.26866 25 6.26866C26.1314 6.26866 27.2502 6.53952 28.2333 7.05307L38.7189 12.51C40.767 13.5768 42.0392 15.5811 42.0392 17.7409V28.5606C42.0392 30.7204 40.767 32.7246 38.7189 33.7915L28.2333 39.2484C26.2671 40.2729 23.7353 40.2729 21.7667 39.2484L11.2811 33.7915C9.23297 32.7246 7.96079 30.7204 7.96079 28.5606V17.7409ZM10.6358 34.8419L21.1215 40.2988C22.3018 40.9135 23.6432 41.2385 25 41.2385C26.3568 41.2385 27.6982 40.9135 28.8783 40.2988L39.3641 34.8419C41.8217 33.5607 43.35 31.1536 43.35 28.5606V17.7409C43.35 15.1479 41.8217 12.7407 39.3641 11.4618L28.8783 6.00268C26.5181 4.77326 23.4819 4.77326 21.1215 6.00268L10.6358 11.4618C8.17828 12.7407 6.65002 15.1479 6.65002 17.7409V28.5606C6.65002 31.1536 8.17828 33.5607 10.6358 34.8419Z" fill="black"/>
</g>
<path d="M11.2375 17.7409C11.2375 16.6646 11.8723 15.6659 12.8938 15.1337L23.3794 9.67672C23.8788 9.41518 24.4394 9.28585 25 9.28585C25.5606 9.28585 26.1212 9.41518 26.6204 9.67672L37.1062 15.1337C38.1277 15.6659 38.7625 16.6646 38.7625 17.7409V28.5605C38.7625 29.6369 38.1277 30.6356 37.1062 31.1678L26.6204 36.6272C25.6195 37.1452 24.3805 37.1452 23.3794 36.6272L12.8938 31.1678C11.8723 30.6356 11.2375 29.6369 11.2375 28.5605V17.7409ZM12.2487 32.2157L22.7344 37.6751C23.4332 38.0403 24.2166 38.2215 25 38.2215C25.7834 38.2215 26.5666 38.0403 27.2656 37.6751L37.7513 32.2157C39.1848 31.4717 40.0731 30.0704 40.0731 28.5605V17.7409C40.0731 16.2311 39.1848 14.8298 37.7513 14.0857L27.2656 8.62633C25.8678 7.89848 24.1322 7.89848 22.7344 8.62633L12.2487 14.0857C10.8177 14.8298 9.9267 16.2311 9.9267 17.7409V28.5605C9.9267 30.0704 10.8177 31.4717 12.2487 32.2157Z" fill="black"/>
<path d="M14.5144 28.5772C14.8753 28.5772 15.1695 28.3063 15.1695 27.9742V20.8803L19.1708 28.2451C19.2836 28.4523 19.5139 28.5772 19.7572 28.5772C19.8083 28.5772 19.857 28.5723 19.9081 28.5605C20.2025 28.4971 20.4126 28.2544 20.4126 27.9742V18.3272C20.4126 17.9951 20.1181 17.7243 19.7572 17.7243C19.3962 17.7243 19.1018 17.9951 19.1018 18.3272V25.4211L15.1005 18.0564C14.9648 17.8092 14.6627 17.6773 14.3632 17.7409C14.0688 17.8044 13.859 18.0471 13.859 18.3272V27.9742C13.859 28.3063 14.1534 28.5772 14.5144 28.5772Z" fill="black"/>
<path d="M23.0339 28.5772C23.3948 28.5772 23.6892 28.3063 23.6892 27.9742V23.7536H26.3108C26.6717 23.7536 26.9662 23.4827 26.9662 23.1506C26.9662 22.8188 26.6717 22.5479 26.3108 22.5479H23.6892V18.9302H28.2767C28.6376 18.9302 28.9321 18.6593 28.9321 18.3272C28.9321 17.9951 28.6376 17.7243 28.2767 17.7243H23.0339C22.6729 17.7243 22.3785 17.9951 22.3785 18.3272V27.9742C22.3785 28.3063 22.6729 28.5772 23.0339 28.5772Z" fill="black"/>
<path d="M30.2428 18.9302H32.209V27.9742C32.209 28.3063 32.5034 28.5772 32.8643 28.5772C33.2253 28.5772 33.5195 28.3063 33.5195 27.9742V18.9302H35.4856C35.8466 18.9302 36.141 18.6593 36.141 18.3272C36.141 17.9951 35.8466 17.7243 35.4856 17.7243H30.2428C29.8818 17.7243 29.5874 17.9951 29.5874 18.3272C29.5874 18.6593 29.8818 18.9302 30.2428 18.9302Z" fill="black"/>
</svg>
