<svg width="50" height="38" viewBox="0 0 50 38" fill="none" xmlns="http://www.w3.org/2000/svg">
<path d="M7.64407 23.0059L5.82678 24.136V27.6988H7.64407V30.2295H8.91117V27.6988H10.7285V21.0811L8.91117 22.2115L7.64407 23.0059Z" fill="white"/>
<path d="M8.91117 17.199L10.7285 16.0609V3.78375H8.91117V1.94121H7.64407V3.78375H5.82678V19.1238L7.64407 17.9937L8.91117 17.199Z" fill="white"/>
<path d="M14.188 10.9748H17.8059V13.0057L18.4312 13.3743V10.344H16.6139V5.61012H15.3383V10.344H13.5295V14.3164L14.188 13.9068V10.9748Z" fill="white"/>
<path d="M17.8059 22.6372H14.188V18.919L13.5295 19.3366V23.2271H15.3383V24.9306H16.6139V23.2271H18.4312V18.3294L17.8059 17.9527V22.6372Z" fill="white"/>
<path d="M23.0411 21.0811L21.2321 20.0001V24.1279H23.0411V24.7668H24.3164V24.1279H26.1337V22.924L24.3164 21.8429L23.0411 21.0811Z" fill="white"/>
<mask id="mask0_283_4161" style="mask-type:luminance" maskUnits="userSpaceOnUse" x="21" y="0" width="6" height="19">
<path d="M21.169 0H26.1547V18.0062H21.169V0Z" fill="white"/>
</mask>
<g mask="url(#mask0_283_4161)">
<path d="M24.3164 16.8878L26.1337 17.9689V3.16967H24.3164V-0.0164337H23.0411V3.16967H21.232V15.0453L23.0411 16.1263L24.3164 16.8878Z" fill="white"/>
</g>
<path d="M29.6265 20V16.1753H33.136V16.9207L33.8279 16.3147V15.1843H32.0189V13.2353H30.7436V15.1843H28.9263V19.6398L29.5848 20.0329L29.6265 20Z" fill="white"/>
<mask id="mask1_283_4161" style="mask-type:luminance" maskUnits="userSpaceOnUse" x="28" y="21" width="6" height="17">
<path d="M28.8812 21.9096H33.8669V38H28.8812V21.9096Z" fill="white"/>
</mask>
<g mask="url(#mask1_283_4161)">
<path d="M33.136 32.1952H29.6265V25.0125L28.9263 24.5949V33.186H30.7436V38.0182H32.0189V33.186H33.8279V21.9822L33.136 22.5963V32.1952Z" fill="white"/>
</g>
<path d="M39.7216 11.1632L41.5389 9.57415V7.17463L41.3554 7.05983H39.6881V2.77652H38.446V7.05176H36.6622V13.8575L38.4795 12.2687L39.7216 11.1632Z" fill="white"/>
<path d="M38.446 17.9443L36.629 19.5334V25.7988H38.446V27.5678H39.7131V25.7988H41.5304V15.2417L39.7131 16.8307L38.446 17.9443Z" fill="white"/>
<path d="M48.6413 5.0125L47.4159 4.85674L42.7059 4.2588C42.6359 4.25013 42.5656 4.24804 42.495 4.25252C42.4247 4.25731 42.3554 4.26897 42.2872 4.2869C42.219 4.30514 42.1533 4.32966 42.09 4.36045C42.0267 4.39124 41.9671 4.42802 41.9111 4.47047C41.8551 4.51262 41.804 4.56016 41.7577 4.61248C41.7112 4.6648 41.6704 4.721 41.6351 4.7811C41.6001 4.84149 41.5712 4.90427 41.5487 4.97004C41.5261 5.03582 41.5103 5.10309 41.5015 5.17215C41.4924 5.24091 41.4902 5.30997 41.4951 5.37903C41.5 5.44839 41.5115 5.51656 41.5298 5.58353C41.5484 5.6505 41.5733 5.71507 41.6046 5.77726C41.6363 5.83944 41.6734 5.89804 41.7166 5.95305C41.7598 6.00776 41.8079 6.05829 41.8612 6.10373C41.9144 6.14947 41.9716 6.18953 42.0331 6.22392C42.0943 6.2586 42.1585 6.287 42.2254 6.30912C42.2924 6.33124 42.3608 6.34679 42.4308 6.35546L44.8318 6.65861L46.2489 6.83859L45.1902 7.78064L41.5304 10.9829L39.7131 12.5719L38.4378 13.6856L36.6622 15.2826L33.8614 17.7396L33.1694 18.3459L32.0523 19.3286L30.7435 20.4341L29.7016 21.3433L29.6182 21.2943L28.9263 20.8763L26.1255 19.2386L24.3082 18.1575L23.0411 17.3629L21.2238 16.2818L18.4227 14.6437L17.7977 14.2754L16.6973 13.6201L16.5972 13.6775L15.3216 14.4964L14.1546 15.1598L13.4961 15.5693L10.6953 17.3138L8.87803 18.4439L7.6024 19.2631L5.81859 20.3767L0.50002 23.7022C0.440377 23.7392 0.384994 23.7817 0.333871 23.8295C0.282749 23.8774 0.236799 23.9297 0.196023 23.9862C0.155551 24.043 0.120861 24.1031 0.0922567 24.1665C0.0636525 24.2298 0.0414384 24.2953 0.0259192 24.3632C0.0107041 24.4307 0.00187939 24.4992 0.00035791 24.5686C-0.00146793 24.6379 0.00370527 24.707 0.0155729 24.7752C0.027745 24.8436 0.0466116 24.91 0.0718686 24.9749C0.0974297 25.0394 0.128773 25.1013 0.166506 25.1599C0.204544 25.2185 0.247754 25.2729 0.296442 25.3232C0.345131 25.3734 0.398079 25.4185 0.455896 25.4586C0.513713 25.4984 0.574878 25.5324 0.639389 25.5605C0.703901 25.5887 0.770543 25.6105 0.839619 25.6257C0.908391 25.6407 0.978076 25.6493 1.04867 25.6508C1.11927 25.6526 1.18926 25.6475 1.25895 25.6359C1.32863 25.6239 1.39619 25.6054 1.46222 25.5806C1.52795 25.5555 1.59094 25.5247 1.65058 25.4876L5.81859 22.883L7.63587 21.7529L8.91119 20.9337L10.7285 19.8201L13.5296 18.0756L14.1881 17.666L15.3383 16.9452L16.614 16.1263L16.7387 16.0525L17.8141 16.6914L18.4395 17.06L21.2402 18.698L23.0411 19.8201L24.3164 20.5815L26.1337 21.6626L28.9345 23.3007L29.6265 23.7183L29.9518 23.915L30.7852 23.2187L32.0523 22.1051L33.1694 21.1221L33.8614 20.5161L36.6622 18.0591L38.446 16.544L39.7216 15.43L41.5389 13.8413L46.1238 9.8199L47.3492 8.7469L47.1408 10.3849L46.9156 12.113C46.9068 12.182 46.9047 12.2511 46.9092 12.3202C46.9141 12.3895 46.9256 12.4577 46.9442 12.5247C46.9628 12.5916 46.9877 12.6562 47.0191 12.7184C47.0504 12.7806 47.0878 12.8392 47.1311 12.8939C47.174 12.9489 47.2223 12.9991 47.2756 13.0449C47.3288 13.0903 47.3861 13.1307 47.4472 13.165C47.5087 13.1997 47.5726 13.2278 47.6395 13.25C47.7065 13.2721 47.775 13.2876 47.8452 13.2966C47.9152 13.3056 47.9855 13.3077 48.0558 13.3029C48.1264 13.2981 48.1958 13.2867 48.264 13.2685C48.3321 13.2503 48.3979 13.2257 48.4612 13.1949C48.5244 13.1642 48.5841 13.1274 48.6401 13.0852C48.6958 13.0428 48.7472 12.9952 48.7934 12.9429C48.84 12.8906 48.8808 12.8344 48.9158 12.7743C48.9511 12.7142 48.98 12.6511 49.0025 12.5854C49.025 12.5196 49.0405 12.4523 49.0497 12.3832L49.6084 8.07542L49.825 6.43738L50 5.1844L48.6413 5.0125Z" fill="white"/>
</svg>
