<svg width="21" height="20" viewBox="0 0 21 20" fill="none" xmlns="http://www.w3.org/2000/svg">
<path d="M13.4565 9.38115C13.4565 9.4395 13.4551 9.49797 13.4522 9.55633C13.4494 9.61468 13.4451 9.67291 13.4393 9.73102C13.4336 9.78926 13.4265 9.84725 13.4179 9.905C13.4093 9.96275 13.3994 10.0204 13.3879 10.0776C13.3765 10.135 13.3637 10.1919 13.3496 10.2487C13.3353 10.3054 13.3198 10.3617 13.3028 10.4175C13.2858 10.4735 13.2675 10.5289 13.2478 10.584C13.2282 10.639 13.2071 10.6935 13.1848 10.7475C13.1623 10.8015 13.1387 10.8549 13.1138 10.9077C13.0887 10.9605 13.0625 11.0127 13.0349 11.0642C13.0074 11.1158 12.9786 11.1666 12.9486 11.2167C12.9184 11.2669 12.8872 11.3162 12.8548 11.3648C12.8224 11.4134 12.7887 11.4611 12.7539 11.508C12.719 11.555 12.6831 11.6011 12.6461 11.6462C12.609 11.6914 12.5709 11.7356 12.5316 11.7789C12.4924 11.8222 12.4521 11.8645 12.4107 11.9059C12.3694 11.9472 12.3271 11.9875 12.2838 12.0267C12.2405 12.066 12.1963 12.1041 12.1511 12.1412C12.106 12.1782 12.0599 12.2141 12.0129 12.249C11.966 12.2838 11.9182 12.3175 11.8697 12.3499C11.8211 12.3823 11.7718 12.4136 11.7216 12.4437C11.6715 12.4737 11.6207 12.5025 11.5691 12.53C11.5176 12.5576 11.4654 12.5838 11.4126 12.6089C11.3598 12.6338 11.3064 12.6575 11.2524 12.6799C11.1984 12.7022 11.1439 12.7233 11.0889 12.7429C11.0338 12.7626 10.9783 12.7809 10.9224 12.7979C10.8666 12.8149 10.8103 12.8305 10.7536 12.8447C10.6968 12.8588 10.6399 12.8716 10.5825 12.883C10.5253 12.8945 10.4676 12.9044 10.4099 12.913C10.3521 12.9216 10.2941 12.9287 10.2359 12.9344C10.1778 12.9402 10.1196 12.9445 10.0612 12.9473C10.0029 12.9502 9.94438 12.9516 9.88603 12.9516C9.82756 12.9516 9.76909 12.9502 9.71073 12.9473C9.65238 12.9445 9.59415 12.9402 9.53604 12.9344C9.4778 12.9287 9.41981 12.9216 9.36206 12.913C9.30431 12.9044 9.24668 12.8945 9.18942 12.883C9.13203 12.8716 9.07512 12.8588 9.01846 12.8447C8.96167 12.8305 8.90537 12.8149 8.84955 12.7979C8.79361 12.7809 8.73815 12.7626 8.68305 12.7429C8.62807 12.7233 8.57358 12.7022 8.51957 12.6799C8.46556 12.6575 8.41215 12.6338 8.35934 12.6089C8.30653 12.5838 8.25433 12.5576 8.20285 12.53C8.15125 12.5025 8.10049 12.4737 8.05034 12.4437C8.00018 12.4136 7.95087 12.3823 7.90228 12.3499C7.8537 12.3175 7.80595 12.2838 7.75905 12.249C7.71203 12.2141 7.66598 12.1782 7.62089 12.1412C7.57568 12.1041 7.53143 12.066 7.48815 12.0267C7.44487 11.9875 7.40255 11.9472 7.3612 11.9059C7.31984 11.8645 7.27957 11.8222 7.24039 11.7789C7.20109 11.7356 7.16299 11.6914 7.12586 11.6462C7.08884 11.6011 7.05292 11.555 7.01807 11.508C6.98323 11.4611 6.94959 11.4134 6.91716 11.3648C6.88473 11.3162 6.8535 11.2669 6.82336 11.2167C6.79334 11.1666 6.76453 11.1158 6.73704 11.0642C6.70943 11.0127 6.68327 10.9605 6.65819 10.9077C6.63323 10.8549 6.6096 10.8015 6.58718 10.7475C6.56488 10.6935 6.54378 10.639 6.52412 10.584C6.50447 10.5289 6.48615 10.4735 6.46915 10.4175C6.45227 10.3617 6.4366 10.3054 6.42249 10.2487C6.40826 10.1919 6.39548 10.135 6.38403 10.0776C6.37258 10.0204 6.36269 9.96275 6.35413 9.905C6.34545 9.84725 6.33834 9.78926 6.33267 9.73102C6.32688 9.67291 6.32254 9.61468 6.31977 9.55633C6.31688 9.49797 6.31543 9.4395 6.31543 9.38115C6.31543 9.32268 6.31688 9.2642 6.31977 9.20585C6.32254 9.1475 6.32688 9.08927 6.33267 9.03115C6.33834 8.97292 6.34545 8.91493 6.35413 8.85718C6.36269 8.79943 6.37258 8.7418 6.38403 8.68453C6.39548 8.62715 6.40826 8.57024 6.42249 8.51358C6.4366 8.45679 6.45227 8.40049 6.46915 8.34467C6.48615 8.28872 6.50447 8.23327 6.52412 8.17817C6.54378 8.12319 6.56488 8.0687 6.58718 8.01468C6.6096 7.96067 6.63323 7.90726 6.65819 7.85446C6.68327 7.80165 6.70943 7.74945 6.73704 7.69796C6.76453 7.64636 6.79334 7.59561 6.82336 7.54545C6.8535 7.4953 6.88473 7.44599 6.91716 7.3974C6.94959 7.34881 6.98323 7.30107 7.01807 7.25417C7.05292 7.20715 7.08884 7.1611 7.12586 7.11601C7.16299 7.07079 7.20109 7.02655 7.24039 6.98327C7.27957 6.93998 7.31984 6.89767 7.3612 6.85631C7.40255 6.81496 7.44487 6.77469 7.48815 6.73551C7.53143 6.6962 7.57568 6.65811 7.62089 6.62097C7.66598 6.58396 7.71203 6.54803 7.75905 6.51319C7.80595 6.47835 7.8537 6.44471 7.90228 6.41228C7.95087 6.37985 8.00018 6.34862 8.05034 6.31848C8.10049 6.28846 8.15125 6.25965 8.20285 6.23216C8.25433 6.20455 8.30653 6.17839 8.35934 6.15331C8.41215 6.12835 8.46556 6.10472 8.51957 6.0823C8.57358 6.05999 8.62807 6.03889 8.68305 6.01924C8.73815 5.99959 8.79361 5.98126 8.84955 5.96427C8.90537 5.94739 8.96167 5.93171 9.01846 5.91761C9.07512 5.90338 9.13203 5.8906 9.18942 5.87915C9.24668 5.86769 9.30431 5.85781 9.36206 5.84925C9.41981 5.84057 9.4778 5.83345 9.53604 5.82779C9.59415 5.822 9.65238 5.81766 9.71073 5.81489C9.76909 5.81199 9.82756 5.81055 9.88603 5.81055C9.94438 5.81055 10.0029 5.81199 10.0612 5.81489C10.1196 5.81766 10.1778 5.822 10.2359 5.82779C10.2941 5.83345 10.3521 5.84057 10.4099 5.84925C10.4676 5.85781 10.5253 5.86769 10.5825 5.87915C10.6399 5.8906 10.6968 5.90338 10.7536 5.91761C10.8103 5.93171 10.8666 5.94739 10.9224 5.96427C10.9783 5.98126 11.0338 5.99959 11.0889 6.01924C11.1439 6.03889 11.1984 6.05999 11.2524 6.0823C11.3064 6.10472 11.3598 6.12835 11.4126 6.15331C11.4654 6.17839 11.5176 6.20455 11.5691 6.23216C11.6207 6.25965 11.6715 6.28846 11.7216 6.31848C11.7718 6.34862 11.8211 6.37985 11.8697 6.41228C11.9182 6.44471 11.966 6.47835 12.0129 6.51319C12.0599 6.54803 12.106 6.58396 12.1511 6.62097C12.1963 6.65811 12.2405 6.6962 12.2838 6.73551C12.3271 6.77469 12.3694 6.81496 12.4107 6.85631C12.4521 6.89767 12.4924 6.93998 12.5316 6.98327C12.5709 7.02655 12.609 7.07079 12.6461 7.11601C12.6831 7.1611 12.719 7.20715 12.7539 7.25417C12.7887 7.30107 12.8224 7.34881 12.8548 7.3974C12.8872 7.44599 12.9184 7.4953 12.9486 7.54545C12.9786 7.59561 13.0074 7.64636 13.0349 7.69796C13.0625 7.74945 13.0887 7.80165 13.1138 7.85446C13.1387 7.90726 13.1623 7.96067 13.1848 8.01468C13.2071 8.0687 13.2282 8.12319 13.2478 8.17817C13.2675 8.23327 13.2858 8.28872 13.3028 8.34467C13.3198 8.40049 13.3353 8.45679 13.3496 8.51358C13.3637 8.57024 13.3765 8.62715 13.3879 8.68453C13.3994 8.7418 13.4093 8.79943 13.4179 8.85718C13.4265 8.91493 13.4336 8.97292 13.4393 9.03115C13.4451 9.08927 13.4494 9.1475 13.4522 9.20585C13.4551 9.2642 13.4565 9.32268 13.4565 9.38115Z" fill="black"/>
<path d="M10.5049 0C4.982 0 0.504883 4.47712 0.504883 10C0.504883 15.5229 4.982 20 10.5049 20C16.0278 20 20.5049 15.5229 20.5049 10C20.5049 4.47712 16.0278 0 10.5049 0ZM16.3198 15.8149C15.948 16.1867 15.3451 16.1867 14.9732 15.8149L13.0251 13.8668C12.1384 14.4885 11.0592 14.8542 9.89447 14.8559C6.91174 14.8604 4.46008 12.4538 4.41186 9.47169C4.36182 6.37623 6.88111 3.85694 9.97657 3.90697C12.9587 3.95508 15.3653 6.40685 15.3608 9.38947C15.359 10.5542 14.9933 11.6335 14.3717 12.5203L16.3198 14.4683C16.6916 14.8401 16.6916 15.4431 16.3198 15.8149Z" fill="black"/>
</svg>
