<svg width="50" height="50" viewBox="0 0 50 50" fill="none" xmlns="http://www.w3.org/2000/svg">
<path d="M38.8781 37.5953C37.5613 37.7805 36.4905 38.7508 36.177 40.0433C35.7331 41.8727 33.8304 42.9411 32.0371 42.3684C30.7697 41.9638 29.3845 42.3735 28.541 43.4014C27.3474 44.8574 25.1693 44.9946 23.8021 43.7004C22.8362 42.7863 21.4107 42.5539 20.2043 43.1145C18.4974 43.9078 16.4753 43.0868 15.8049 41.3275C15.3314 40.0847 14.1474 39.2569 12.8176 39.2386C10.9351 39.2126 9.47031 37.5958 9.62945 35.7196C9.74181 34.3949 9.03435 33.135 7.84415 32.5418C6.1594 31.7017 5.54091 29.6087 6.49842 27.9879C7.17454 26.843 7.08364 25.4011 6.26887 24.35C5.11556 22.8623 5.4664 20.7083 7.03228 19.6632C8.13832 18.9249 8.68206 17.5867 8.40429 16.2863V16.286C8.01028 14.4453 9.26101 12.6568 11.1252 12.3947C12.4422 12.2095 13.5126 11.2395 13.8265 9.94729C14.2704 8.11786 16.1731 7.04895 17.9664 7.62163C19.2333 8.02624 20.6188 7.61704 21.4625 6.58864C22.6561 5.13296 24.8342 4.99576 26.2014 6.28988C27.1671 7.20399 28.5928 7.4362 29.7992 6.87558C31.5061 6.08227 33.528 6.90331 34.1983 8.66257C34.6716 9.90534 35.8561 10.7331 37.1856 10.7514C39.0679 10.7775 40.5332 12.3947 40.374 14.2704C40.2612 15.5957 40.9689 16.8551 42.1593 17.4487C43.8439 18.2886 44.4621 20.3813 43.5051 22.0022C42.8285 23.1475 42.9194 24.589 43.7341 25.64C44.8879 27.128 44.5371 29.282 42.9712 30.3268C41.8652 31.0652 41.3212 32.4039 41.5992 33.704C41.9927 35.5448 40.7425 37.3332 38.8781 37.5953Z" fill="#514AF3"/>
<path d="M32.9291 17.3333L21.146 29.1167C20.9717 29.2907 20.6886 29.2907 20.5145 29.1167L17.0741 25.6763C16.4845 25.0867 15.5285 25.0867 14.9389 25.6763C14.3491 26.2658 14.3491 27.2214 14.9389 27.8112L18.695 31.5672L19.8008 32.6735C20.3693 33.2418 21.2912 33.2418 21.8595 32.6735L22.9653 31.5672L35.0643 19.4685C35.6541 18.8789 35.6541 17.9228 35.0643 17.3333C34.4748 16.7437 33.5187 16.7437 32.9291 17.3333Z" fill="white"/>
</svg>
