<svg width="38" height="39" viewBox="0 0 38 39" fill="none" xmlns="http://www.w3.org/2000/svg">
<g filter="url(#filter0_d_732_6060)">
<mask id="mask0_732_6060" style="mask-type:luminance" maskUnits="userSpaceOnUse" x="11" y="23" width="24" height="12">
<path d="M11.6597 23.1521H34.9824V34.365H11.6597V23.1521Z" fill="white"/>
</mask>
<g mask="url(#mask0_732_6060)">
<path d="M33.8306 23.1751H15.8067C15.7699 23.1753 15.7331 23.1774 15.6965 23.1811C15.6599 23.185 15.6235 23.1907 15.5873 23.1979C15.5513 23.2053 15.5157 23.2144 15.4805 23.2253C15.4452 23.236 15.4108 23.2487 15.3767 23.2629C15.3428 23.2771 15.3095 23.2929 15.277 23.3102C15.2447 23.3277 15.2132 23.3466 15.1826 23.3672C15.1521 23.3877 15.1225 23.4097 15.094 23.433C15.0656 23.4564 15.0384 23.4811 15.0123 23.5072C14.9862 23.5333 14.9615 23.5606 14.9381 23.589C14.9148 23.6174 14.8928 23.647 14.8723 23.6775C14.8519 23.7081 14.8328 23.7396 14.8155 23.772C14.798 23.8045 14.7822 23.8378 14.768 23.8716C14.7538 23.9057 14.7411 23.9402 14.7304 23.9754C14.7195 24.0106 14.7104 24.0462 14.703 24.0823C14.6958 24.1185 14.6901 24.1549 14.6862 24.1915C14.6825 24.2281 14.6804 24.2647 14.6802 24.3017V30.3097C14.6802 30.371 14.6771 30.4325 14.6712 30.4936C14.6652 30.5548 14.656 30.6155 14.6442 30.6758C14.6321 30.7362 14.6171 30.7958 14.5994 30.8546C14.5815 30.9135 14.5609 30.9714 14.5373 31.028C14.5137 31.0848 14.4875 31.1403 14.4585 31.1946C14.4295 31.2489 14.3979 31.3015 14.3639 31.3527C14.3296 31.4037 14.293 31.4532 14.2541 31.5007C14.2149 31.5482 14.1737 31.5937 14.1302 31.6371C14.0868 31.6807 14.0413 31.722 13.9938 31.7609C13.9463 31.7999 13.8968 31.8365 13.8458 31.8707C13.7946 31.9048 13.7419 31.9363 13.6878 31.9653C13.6335 31.9943 13.578 32.0206 13.5211 32.0442C13.4643 32.0677 13.4065 32.0884 13.3477 32.1063C13.2889 32.1242 13.2293 32.139 13.169 32.151C13.1086 32.1631 13.0479 32.1721 12.9868 32.1781C12.9255 32.1841 12.8641 32.187 12.8026 32.187C12.7658 32.187 12.729 32.1888 12.6922 32.1925C12.6556 32.1962 12.619 32.2015 12.5828 32.2087C12.5466 32.2159 12.511 32.2248 12.4758 32.2355C12.4403 32.2462 12.4057 32.2587 12.3716 32.2729C12.3376 32.2869 12.3043 32.3027 12.2716 32.32C12.2391 32.3375 12.2075 32.3564 12.1768 32.3769C12.1462 32.3975 12.1166 32.4195 12.088 32.4428C12.0596 32.4662 12.0321 32.4909 12.006 32.517C11.98 32.5431 11.9552 32.5704 11.9319 32.599C11.9085 32.6274 11.8865 32.657 11.8661 32.6877C11.8454 32.7185 11.8266 32.75 11.8092 32.7825C11.7917 32.815 11.7761 32.8483 11.7619 32.8824C11.7479 32.9167 11.7354 32.9513 11.7247 32.9865C11.714 33.022 11.7051 33.0576 11.6979 33.0938C11.6907 33.13 11.6852 33.1664 11.6815 33.2032C11.678 33.2398 11.6763 33.2766 11.6763 33.3136C11.6763 33.3506 11.678 33.3874 11.6815 33.424C11.6852 33.4608 11.6907 33.4972 11.6979 33.5334C11.7051 33.5696 11.714 33.6052 11.7247 33.6406C11.7354 33.6759 11.7479 33.7105 11.7619 33.7446C11.7761 33.7788 11.7917 33.8121 11.8092 33.8446C11.8266 33.8772 11.8454 33.9087 11.8661 33.9394C11.8865 33.9702 11.9085 33.9998 11.9319 34.0282C11.9552 34.0568 11.98 34.0841 12.006 34.1102C12.0321 34.1363 12.0596 34.161 12.088 34.1843C12.1166 34.2077 12.1462 34.2297 12.1768 34.2503C12.2075 34.2708 12.2391 34.2897 12.2716 34.307C12.3043 34.3245 12.3376 34.3403 12.3716 34.3543C12.4057 34.3685 12.4403 34.381 12.4758 34.3917C12.511 34.4024 12.5466 34.4113 12.5828 34.4185C12.619 34.4257 12.6556 34.431 12.6922 34.4347C12.729 34.4382 12.7658 34.4401 12.8026 34.4401H30.8267C30.8942 34.4401 30.9618 34.4386 31.0293 34.4353C31.0969 34.432 31.1644 34.4271 31.2316 34.4205C31.299 34.4139 31.3661 34.4057 31.4329 34.3957C31.4999 34.3858 31.5664 34.3743 31.6328 34.3613C31.699 34.3481 31.765 34.3333 31.8306 34.3169C31.8962 34.3006 31.9614 34.2825 32.026 34.263C32.0907 34.2433 32.1549 34.2221 32.2186 34.1993C32.2822 34.1766 32.3453 34.1524 32.4078 34.1265C32.4703 34.1006 32.5322 34.0732 32.5933 34.0444C32.6544 34.0156 32.7148 33.9852 32.7743 33.9533C32.8341 33.9213 32.8929 33.8881 32.9509 33.8534C33.0089 33.8186 33.066 33.7825 33.1222 33.745C33.1785 33.7074 33.2338 33.6685 33.2881 33.6282C33.3424 33.5879 33.3955 33.5464 33.4479 33.5034C33.5001 33.4606 33.5513 33.4164 33.6015 33.371C33.6515 33.3257 33.7004 33.2789 33.7483 33.2312C33.7962 33.1834 33.8427 33.1345 33.888 33.0843C33.9336 33.0342 33.9776 32.983 34.0206 32.9307C34.0634 32.8785 34.1051 32.8252 34.1452 32.7709C34.1855 32.7165 34.2244 32.6613 34.262 32.605C34.2996 32.5489 34.3358 32.4917 34.3704 32.4337C34.4053 32.3757 34.4386 32.3169 34.4703 32.2573C34.5022 32.1976 34.5326 32.1372 34.5614 32.0761C34.5904 32.015 34.6177 31.9533 34.6435 31.8908C34.6694 31.8283 34.6938 31.7652 34.7165 31.7015C34.7393 31.6379 34.7603 31.5737 34.78 31.509C34.7997 31.4442 34.8176 31.3792 34.8339 31.3136C34.8505 31.248 34.8651 31.182 34.8783 31.1156C34.8915 31.0492 34.903 30.9826 34.913 30.9159C34.9227 30.8489 34.9311 30.7817 34.9375 30.7146C34.9441 30.6472 34.9492 30.5799 34.9523 30.5123C34.9556 30.4448 34.9572 30.3772 34.9572 30.3097V24.3017C34.957 24.2647 34.955 24.2281 34.9511 24.1915C34.9472 24.1549 34.9418 24.1185 34.9344 24.0823C34.927 24.0462 34.9178 24.0106 34.9069 23.9754C34.8962 23.9402 34.8836 23.9057 34.8696 23.8716C34.8553 23.8378 34.8394 23.8045 34.8221 23.772C34.8045 23.7396 34.7856 23.7081 34.765 23.6775C34.7446 23.647 34.7226 23.6174 34.6992 23.589C34.6759 23.5606 34.6511 23.5333 34.625 23.5072C34.599 23.4811 34.5717 23.4564 34.5433 23.433C34.5149 23.4097 34.4853 23.3877 34.4547 23.3672C34.4242 23.3466 34.3926 23.3277 34.3603 23.3102C34.3278 23.2929 34.2947 23.2771 34.2606 23.2629C34.2266 23.2487 34.1921 23.236 34.1569 23.2253C34.1216 23.2144 34.086 23.2053 34.05 23.1979C34.0138 23.1907 33.9776 23.185 33.9408 23.1811C33.9042 23.1774 33.8676 23.1753 33.8306 23.1751ZM32.7043 30.3097C32.7043 30.371 32.7011 30.4325 32.6951 30.4936C32.6891 30.5548 32.6801 30.6155 32.6681 30.6758C32.6562 30.7362 32.6412 30.7958 32.6233 30.8546C32.6056 30.9135 32.5847 30.9714 32.5612 31.028C32.5378 31.0848 32.5115 31.1403 32.4825 31.1946C32.4535 31.2489 32.422 31.3015 32.3877 31.3527C32.3537 31.4037 32.3171 31.4532 32.2779 31.5007C32.239 31.5482 32.1977 31.5937 32.1543 31.6371C32.1107 31.6807 32.0654 31.722 32.0177 31.7609C31.9702 31.7999 31.9209 31.8365 31.8697 31.8707C31.8187 31.9048 31.766 31.9363 31.7117 31.9653C31.6575 31.9943 31.6021 32.0206 31.5452 32.0442C31.4884 32.0677 31.4306 32.0884 31.3718 32.1063C31.3128 32.1242 31.2532 32.139 31.1931 32.151C31.1327 32.1631 31.072 32.1721 31.0107 32.1781C30.9495 32.1841 30.8882 32.187 30.8267 32.187H16.4826C16.6309 31.8964 16.7433 31.5923 16.8194 31.275C16.8955 30.9577 16.9335 30.6359 16.9333 30.3097V25.428H32.7043V30.3097Z" fill="#514AF3"/>
</g>
<mask id="mask1_732_6060" style="mask-type:luminance" maskUnits="userSpaceOnUse" x="4" y="2" width="27" height="33">
<path d="M4.88232 2.1218H30.4975V34.365H4.88232V2.1218Z" fill="white"/>
</mask>
<g mask="url(#mask1_732_6060)">
<path d="M26.321 2.14709H6.04402C6.00704 2.14709 5.97024 2.14885 5.93345 2.15255C5.89685 2.15605 5.86045 2.1615 5.82424 2.1687C5.78803 2.17591 5.75222 2.18486 5.71698 2.19557C5.68155 2.20627 5.6469 2.21873 5.61283 2.23275C5.57877 2.24696 5.54548 2.26273 5.51297 2.28005C5.48046 2.29738 5.44873 2.31646 5.41817 2.3369C5.38741 2.35734 5.35782 2.37933 5.3292 2.40269C5.30078 2.42625 5.27353 2.45097 5.24744 2.47706C5.22136 2.50314 5.19663 2.5304 5.17308 2.55882C5.14972 2.58743 5.12772 2.61702 5.10728 2.64778C5.08684 2.67834 5.06776 2.71007 5.05044 2.74258C5.03311 2.77509 5.01734 2.80838 5.00313 2.84245C4.98912 2.87651 4.97666 2.91116 4.96595 2.94659C4.95525 2.98183 4.94629 3.01765 4.93909 3.05386C4.93189 3.09006 4.92644 3.12647 4.92293 3.16306C4.91923 3.19986 4.91748 3.23665 4.91748 3.27364C4.91748 3.31043 4.91923 3.34722 4.92293 3.38401C4.92644 3.42061 4.93189 3.45721 4.93909 3.49342C4.94629 3.52943 4.95525 3.56525 4.96595 3.60048C4.97666 3.63591 4.98912 3.67056 5.00313 3.70463C5.01734 3.7387 5.03311 3.77198 5.05044 3.80449C5.06776 3.8372 5.08684 3.86873 5.10728 3.89949C5.12772 3.93005 5.14972 3.95964 5.17308 3.98826C5.19663 4.01668 5.22136 4.04394 5.24744 4.07002C5.27353 4.09611 5.30078 4.12102 5.3292 4.14438C5.35782 4.16774 5.38741 4.18974 5.41817 4.21018C5.44873 4.23062 5.48046 4.2497 5.51297 4.26702C5.54548 4.28435 5.57877 4.30012 5.61283 4.31433C5.6469 4.32834 5.68155 4.3408 5.71698 4.35151C5.75222 4.36222 5.78803 4.37117 5.82424 4.37837C5.86045 4.38558 5.89685 4.39103 5.93345 4.39473C5.97024 4.39823 6.00704 4.39998 6.04402 4.39998C6.08081 4.40037 6.11741 4.40232 6.1542 4.40621C6.1908 4.40991 6.2272 4.41556 6.26322 4.42295C6.29923 4.43035 6.33486 4.43931 6.37009 4.45021C6.40533 4.46111 6.43998 4.47357 6.47385 4.48778C6.50791 4.50199 6.54101 4.51776 6.57352 4.53528C6.60603 4.5528 6.63737 4.57168 6.66813 4.59212C6.69869 4.61275 6.72808 4.63456 6.75651 4.65811C6.78512 4.68147 6.81237 4.70619 6.83827 4.73209C6.86435 4.75817 6.88907 4.78542 6.91243 4.81385C6.93579 4.84227 6.95779 4.87186 6.97823 4.90242C6.99887 4.93298 7.01775 4.96452 7.03527 4.99703C7.05259 5.02934 7.06856 5.06263 7.08277 5.0967C7.09698 5.13057 7.10944 5.16522 7.12034 5.20046C7.13105 5.2355 7.1402 5.27131 7.14759 5.30733C7.15499 5.34334 7.16044 5.37974 7.16433 5.41634C7.16823 5.45294 7.17017 5.48973 7.17037 5.52652V30.3096C7.17037 30.3772 7.17193 30.4447 7.17524 30.5123C7.17854 30.5798 7.18341 30.6472 7.19003 30.7146C7.19665 30.7817 7.20482 30.8489 7.21475 30.9158C7.22468 30.9826 7.23617 31.0492 7.2494 31.1156C7.26245 31.182 7.27724 31.2479 7.29359 31.3135C7.30995 31.3792 7.32805 31.4442 7.34771 31.509C7.36718 31.5736 7.3884 31.6379 7.41117 31.7015C7.43395 31.7652 7.45828 31.8283 7.48398 31.8907C7.50987 31.9532 7.53732 32.0149 7.56613 32.0761C7.59513 32.1372 7.6255 32.1975 7.65723 32.2573C7.68916 32.3169 7.72245 32.3757 7.7571 32.4337C7.79194 32.4917 7.82815 32.5489 7.86572 32.605C7.9031 32.6612 7.94203 32.7165 7.98233 32.7708C8.02262 32.8251 8.06428 32.8785 8.10711 32.9307C8.14994 32.983 8.19413 33.0342 8.23948 33.0842C8.28504 33.1345 8.33156 33.1833 8.37945 33.2312C8.42714 33.2789 8.4762 33.3256 8.52623 33.371C8.57626 33.4163 8.62746 33.4605 8.67982 33.5034C8.73199 33.5464 8.78533 33.5879 8.83964 33.6281C8.89396 33.6684 8.94924 33.7074 9.0055 33.7449C9.06176 33.7825 9.1188 33.8185 9.17681 33.8534C9.23482 33.888 9.29361 33.9213 9.35318 33.9532C9.41294 33.9852 9.47329 34.0155 9.53441 34.0443C9.59554 34.0732 9.65725 34.1006 9.71974 34.1265C9.78222 34.1524 9.8453 34.1765 9.90895 34.1993C9.97261 34.2221 10.0368 34.2433 10.1017 34.263C10.1663 34.2824 10.2315 34.3005 10.2971 34.3169C10.3627 34.3332 10.4285 34.348 10.4949 34.3613C10.5613 34.3743 10.6279 34.3858 10.6946 34.3957C10.7616 34.4056 10.8288 34.4138 10.8959 34.4204C10.9633 34.4271 11.0306 34.4319 11.0982 34.4352C11.1657 34.4385 11.2333 34.4401 11.301 34.4401H29.3249C29.3617 34.4399 29.3985 34.4378 29.4351 34.4339C29.4717 34.4302 29.5081 34.4245 29.5443 34.4171C29.5803 34.4097 29.6159 34.4008 29.6512 34.3899C29.6864 34.379 29.7209 34.3665 29.7549 34.3523C29.7888 34.3381 29.8221 34.3223 29.8546 34.3048C29.8869 34.2875 29.9184 34.2684 29.949 34.248C29.9796 34.2273 30.0092 34.2055 30.0376 34.1822C30.066 34.1586 30.0933 34.1339 30.1193 34.108C30.1454 34.0819 30.1702 34.0547 30.1935 34.0262C30.2169 33.9978 30.2389 33.9682 30.2593 33.9377C30.2797 33.9071 30.2988 33.8756 30.3163 33.8431C30.3337 33.8107 30.3494 33.7775 30.3637 33.7436C30.3779 33.7095 30.3905 33.6749 30.4012 33.6398C30.4121 33.6046 30.4213 33.569 30.4287 33.5328C30.4359 33.4967 30.4415 33.4603 30.4454 33.4237C30.4491 33.3871 30.4513 33.3504 30.4514 33.3136V32.187H16.4829C16.6312 31.8964 16.7435 31.5923 16.8197 31.275C16.8958 30.9577 16.9337 30.6359 16.9335 30.3096V25.428H30.4514V6.27755C30.4514 6.21 30.4499 6.14245 30.4466 6.0749C30.4433 6.00735 30.4384 5.9398 30.4318 5.87264C30.4252 5.80529 30.417 5.73813 30.4071 5.67136C30.3973 5.60439 30.3856 5.53781 30.3726 5.47143C30.3594 5.40525 30.3446 5.33925 30.3282 5.27365C30.3119 5.20805 30.294 5.14283 30.2743 5.0782C30.2546 5.01357 30.2334 4.94933 30.2108 4.88568C30.1881 4.82202 30.1637 4.75895 30.1378 4.69646C30.1119 4.63397 30.0847 4.57207 30.0557 4.51094C30.0269 4.44982 29.9965 4.38947 29.9646 4.3299C29.9329 4.27014 29.8996 4.21135 29.8647 4.15334C29.8301 4.09533 29.7939 4.03829 29.7563 3.98203C29.7187 3.92577 29.6798 3.87049 29.6395 3.81617C29.5992 3.76186 29.5577 3.70872 29.5147 3.65635C29.4719 3.60418 29.4277 3.55298 29.3823 3.50276C29.337 3.45273 29.2903 3.40387 29.2426 3.35598C29.1947 3.30809 29.1458 3.26157 29.0956 3.21621C29.0456 3.17066 28.9944 3.12666 28.9422 3.08364C28.8898 3.04081 28.8365 2.99915 28.7822 2.95905C28.7279 2.91876 28.6728 2.87982 28.6165 2.84225C28.5603 2.80468 28.503 2.76847 28.4452 2.73382C28.3872 2.69898 28.3282 2.66569 28.2686 2.63396C28.2091 2.60203 28.1487 2.57166 28.0876 2.54285C28.0263 2.51385 27.9646 2.48659 27.9021 2.4607C27.8396 2.43481 27.7765 2.41048 27.7129 2.3877C27.6492 2.36493 27.585 2.3439 27.5203 2.32424C27.4555 2.30458 27.3905 2.28667 27.3249 2.27032C27.2593 2.25377 27.1933 2.23917 27.1269 2.22594C27.0607 2.2127 26.9941 2.20121 26.9272 2.19128C26.8602 2.18155 26.7933 2.17318 26.7259 2.16676C26.6585 2.16014 26.5912 2.15508 26.5236 2.15196C26.4561 2.14865 26.3885 2.14709 26.321 2.14709ZM12.8029 8.15512H20.313C20.3498 8.15512 20.3867 8.15687 20.4233 8.16057C20.4601 8.16407 20.4965 8.16952 20.5327 8.17673C20.569 8.18393 20.6046 8.19288 20.64 8.20359C20.6752 8.2143 20.7099 8.22676 20.744 8.24077C20.7782 8.25498 20.8115 8.27075 20.844 8.28808C20.8765 8.3054 20.9081 8.32448 20.9388 8.34492C20.9694 8.36536 20.9992 8.38736 21.0276 8.41072C21.0562 8.43408 21.0835 8.459 21.1095 8.48508C21.1356 8.51117 21.1604 8.53842 21.1837 8.56684C21.2071 8.59546 21.2291 8.62505 21.2495 8.65561C21.2701 8.68637 21.289 8.7179 21.3064 8.75061C21.3239 8.78312 21.3396 8.8164 21.3537 8.85047C21.3679 8.88454 21.3803 8.91919 21.391 8.95462C21.4017 8.98985 21.4107 9.02567 21.4179 9.06188C21.4251 9.09789 21.4304 9.13449 21.4341 9.17109C21.4376 9.20788 21.4395 9.24467 21.4395 9.28147C21.4395 9.31845 21.4376 9.35524 21.4341 9.39204C21.4304 9.42863 21.4251 9.46523 21.4179 9.50125C21.4107 9.53745 21.4017 9.57327 21.391 9.60851C21.3803 9.64394 21.3679 9.67859 21.3537 9.71265C21.3396 9.74672 21.3239 9.78001 21.3064 9.81252C21.289 9.84503 21.2701 9.87676 21.2495 9.90732C21.2291 9.93808 21.2071 9.96767 21.1837 9.99628C21.1604 10.0247 21.1356 10.052 21.1095 10.078C21.0835 10.1041 21.0562 10.1289 21.0276 10.1524C20.9992 10.1758 20.9694 10.1978 20.9388 10.2182C20.9081 10.2386 20.8765 10.2577 20.844 10.275C20.8115 10.2924 20.7782 10.3081 20.744 10.3224C20.7099 10.3364 20.6752 10.3488 20.64 10.3595C20.6046 10.3702 20.569 10.3792 20.5327 10.3864C20.4965 10.3936 20.4601 10.3991 20.4233 10.4026C20.3867 10.4063 20.3498 10.408 20.313 10.408H12.8029C12.7661 10.408 12.7293 10.4063 12.6925 10.4026C12.6559 10.3991 12.6193 10.3936 12.5831 10.3864C12.5469 10.3792 12.5113 10.3702 12.476 10.3595C12.4406 10.3488 12.406 10.3364 12.3719 10.3224C12.3378 10.3081 12.3045 10.2924 12.2718 10.275C12.2393 10.2577 12.2078 10.2386 12.177 10.2182C12.1465 10.1978 12.1169 10.1758 12.0883 10.1524C12.0598 10.1289 12.0324 10.1041 12.0063 10.078C11.9802 10.052 11.9555 10.0247 11.9321 9.99628C11.9088 9.96767 11.8868 9.93808 11.8663 9.90732C11.8457 9.87676 11.8268 9.84503 11.8095 9.81252C11.792 9.78001 11.7764 9.74672 11.7622 9.71265C11.7482 9.67859 11.7357 9.64394 11.725 9.60851C11.7143 9.57327 11.7053 9.53745 11.6981 9.50125C11.6909 9.46523 11.6855 9.42863 11.6818 9.39204C11.6783 9.35524 11.6765 9.31845 11.6765 9.28147C11.6765 9.24467 11.6783 9.20788 11.6818 9.17109C11.6855 9.13449 11.6909 9.09789 11.6981 9.06188C11.7053 9.02567 11.7143 8.98985 11.725 8.95462C11.7357 8.91919 11.7482 8.88454 11.7622 8.85047C11.7764 8.8164 11.792 8.78312 11.8095 8.75061C11.8268 8.7179 11.8457 8.68637 11.8663 8.65561C11.8868 8.62505 11.9088 8.59546 11.9321 8.56684C11.9555 8.53842 11.9802 8.51117 12.0063 8.48508C12.0324 8.459 12.0598 8.43408 12.0883 8.41072C12.1169 8.38736 12.1465 8.36536 12.177 8.34492C12.2078 8.32448 12.2393 8.3054 12.2718 8.28808C12.3045 8.27075 12.3378 8.25498 12.3719 8.24077C12.406 8.22676 12.4406 8.2143 12.476 8.20359C12.5113 8.19288 12.5469 8.18393 12.5831 8.17673C12.6193 8.16952 12.6559 8.16407 12.6925 8.16057C12.7293 8.15687 12.7661 8.15512 12.8029 8.15512ZM12.8029 12.6611H24.8189C24.8559 12.6611 24.8927 12.6628 24.9293 12.6665C24.9661 12.67 25.0025 12.6755 25.0387 12.6827C25.0749 12.6899 25.1107 12.6989 25.146 12.7096C25.1812 12.7203 25.2161 12.7327 25.2501 12.7467C25.2842 12.761 25.3175 12.7767 25.35 12.794C25.3825 12.8114 25.414 12.8304 25.4448 12.8509C25.4755 12.8713 25.5051 12.8933 25.5336 12.9167C25.5622 12.9402 25.5894 12.965 25.6155 12.9911C25.6416 13.0171 25.6663 13.0444 25.6897 13.073C25.7132 13.1014 25.735 13.131 25.7557 13.1618C25.7761 13.1923 25.795 13.2241 25.8125 13.2566C25.8298 13.2891 25.8456 13.3224 25.8596 13.3564C25.8738 13.3905 25.8863 13.4252 25.897 13.4606C25.9077 13.4958 25.9167 13.5316 25.9239 13.5679C25.9311 13.6041 25.9363 13.6405 25.94 13.6771C25.9437 13.7139 25.9455 13.7506 25.9455 13.7876C25.9455 13.8244 25.9437 13.8612 25.94 13.898C25.9363 13.9346 25.9311 13.9712 25.9239 14.0074C25.9167 14.0434 25.9077 14.0792 25.897 14.1145C25.8863 14.1499 25.8738 14.1846 25.8596 14.2186C25.8456 14.2527 25.8298 14.286 25.8125 14.3185C25.795 14.3512 25.7761 14.3827 25.7557 14.4135C25.735 14.444 25.7132 14.4736 25.6897 14.5023C25.6663 14.5307 25.6416 14.5579 25.6155 14.5842C25.5894 14.6103 25.5622 14.635 25.5336 14.6584C25.5051 14.6817 25.4755 14.7037 25.4448 14.7242C25.414 14.7446 25.3825 14.7637 25.35 14.781C25.3175 14.7983 25.2842 14.8141 25.2501 14.8283C25.2161 14.8423 25.1812 14.8548 25.146 14.8655C25.1107 14.8762 25.0749 14.8852 25.0387 14.8924C25.0025 14.8996 24.9661 14.905 24.9293 14.9087C24.8927 14.9122 24.8559 14.914 24.8189 14.914H12.8029C12.7661 14.914 12.7293 14.9122 12.6925 14.9087C12.6559 14.905 12.6193 14.8996 12.5831 14.8924C12.5469 14.8852 12.5113 14.8762 12.476 14.8655C12.4406 14.8548 12.406 14.8423 12.3719 14.8283C12.3378 14.8141 12.3045 14.7983 12.2718 14.781C12.2393 14.7637 12.2078 14.7446 12.177 14.7242C12.1465 14.7037 12.1169 14.6817 12.0883 14.6584C12.0598 14.635 12.0324 14.6103 12.0063 14.5842C11.9802 14.5579 11.9555 14.5307 11.9321 14.5023C11.9088 14.4736 11.8868 14.444 11.8663 14.4135C11.8457 14.3827 11.8268 14.3512 11.8095 14.3185C11.792 14.286 11.7764 14.2527 11.7622 14.2186C11.7482 14.1846 11.7357 14.1499 11.725 14.1145C11.7143 14.0792 11.7053 14.0434 11.6981 14.0074C11.6909 13.9712 11.6855 13.9346 11.6818 13.898C11.6783 13.8612 11.6765 13.8244 11.6765 13.7876C11.6765 13.7506 11.6783 13.7139 11.6818 13.6771C11.6855 13.6405 11.6909 13.6041 11.6981 13.5679C11.7053 13.5316 11.7143 13.4958 11.725 13.4606C11.7357 13.4252 11.7482 13.3905 11.7622 13.3564C11.7764 13.3224 11.792 13.2891 11.8095 13.2566C11.8268 13.2241 11.8457 13.1923 11.8663 13.1618C11.8868 13.131 11.9088 13.1014 11.9321 13.073C11.9555 13.0444 11.9802 13.0171 12.0063 12.9911C12.0324 12.965 12.0598 12.9402 12.0883 12.9167C12.1169 12.8933 12.1465 12.8713 12.177 12.8509C12.2078 12.8304 12.2393 12.8114 12.2718 12.794C12.3045 12.7767 12.3378 12.761 12.3719 12.7467C12.406 12.7327 12.4406 12.7203 12.476 12.7096C12.5113 12.6989 12.5469 12.6899 12.5831 12.6827C12.6193 12.6755 12.6559 12.67 12.6925 12.6665C12.7293 12.6628 12.7661 12.6611 12.8029 12.6611ZM12.8029 17.1671H24.8189C24.8559 17.1671 24.8927 17.1688 24.9293 17.1725C24.9661 17.176 25.0025 17.1815 25.0387 17.1887C25.0749 17.1959 25.1107 17.2048 25.146 17.2155C25.1812 17.2262 25.2161 17.2387 25.2501 17.2527C25.2842 17.2669 25.3175 17.2827 25.35 17.3C25.3825 17.3175 25.414 17.3364 25.4448 17.3569C25.4755 17.3775 25.5051 17.3993 25.5336 17.4229C25.5622 17.4462 25.5894 17.4709 25.6155 17.497C25.6416 17.5231 25.6663 17.5504 25.6897 17.579C25.7132 17.6074 25.735 17.637 25.7557 17.6677C25.7761 17.6983 25.795 17.73 25.8125 17.7625C25.8298 17.7951 25.8456 17.8283 25.8596 17.8624C25.8738 17.8965 25.8863 17.9313 25.897 17.9666C25.9077 18.0018 25.9167 18.0376 25.9239 18.0738C25.9311 18.11 25.9363 18.1464 25.94 18.1832C25.9437 18.2198 25.9455 18.2566 25.9455 18.2936C25.9455 18.3304 25.9437 18.3672 25.94 18.404C25.9363 18.4408 25.9311 18.4772 25.9239 18.5134C25.9167 18.5496 25.9077 18.5852 25.897 18.6206C25.8863 18.6559 25.8738 18.6905 25.8596 18.7246C25.8456 18.7587 25.8298 18.7921 25.8125 18.8247C25.795 18.8572 25.7761 18.8887 25.7557 18.9195C25.735 18.95 25.7132 18.9796 25.6897 19.0082C25.6663 19.0366 25.6416 19.0641 25.6155 19.0902C25.5894 19.1163 25.5622 19.141 25.5336 19.1643C25.5051 19.1877 25.4755 19.2097 25.4448 19.2301C25.414 19.2508 25.3825 19.2697 25.35 19.287C25.3175 19.3045 25.2842 19.3203 25.2501 19.3343C25.2161 19.3485 25.1812 19.3608 25.146 19.3715C25.1107 19.3822 25.0749 19.3911 25.0387 19.3983C25.0025 19.4055 24.9661 19.411 24.9293 19.4147C24.8927 19.4182 24.8559 19.4201 24.8189 19.4201H12.8029C12.7661 19.4201 12.7293 19.4182 12.6925 19.4147C12.6559 19.411 12.6193 19.4055 12.5831 19.3983C12.5469 19.3911 12.5113 19.3822 12.476 19.3715C12.4406 19.3608 12.406 19.3485 12.3719 19.3343C12.3378 19.3203 12.3045 19.3045 12.2718 19.287C12.2393 19.2697 12.2078 19.2508 12.177 19.2301C12.1465 19.2097 12.1169 19.1877 12.0883 19.1643C12.0598 19.141 12.0324 19.1163 12.0063 19.0902C11.9802 19.0641 11.9555 19.0366 11.9321 19.0082C11.9088 18.9796 11.8868 18.95 11.8663 18.9195C11.8457 18.8887 11.8268 18.8572 11.8095 18.8247C11.792 18.7921 11.7764 18.7587 11.7622 18.7246C11.7482 18.6905 11.7357 18.6559 11.725 18.6206C11.7143 18.5852 11.7053 18.5496 11.6981 18.5134C11.6909 18.4772 11.6855 18.4408 11.6818 18.404C11.6783 18.3672 11.6765 18.3304 11.6765 18.2936C11.6765 18.2566 11.6783 18.2198 11.6818 18.1832C11.6855 18.1464 11.6909 18.11 11.6981 18.0738C11.7053 18.0376 11.7143 18.0018 11.725 17.9666C11.7357 17.9313 11.7482 17.8965 11.7622 17.8624C11.7764 17.8283 11.792 17.7951 11.8095 17.7625C11.8268 17.73 11.8457 17.6983 11.8663 17.6677C11.8868 17.637 11.9088 17.6074 11.9321 17.579C11.9555 17.5504 11.9802 17.5231 12.0063 17.497C12.0324 17.4709 12.0598 17.4462 12.0883 17.4229C12.1169 17.3993 12.1465 17.3775 12.177 17.3569C12.2078 17.3364 12.2393 17.3175 12.2718 17.3C12.3045 17.2827 12.3378 17.2669 12.3719 17.2527C12.406 17.2387 12.4406 17.2262 12.476 17.2155C12.5113 17.2048 12.5469 17.1959 12.5831 17.1887C12.6193 17.1815 12.6559 17.176 12.6925 17.1725C12.7293 17.1688 12.7661 17.1671 12.8029 17.1671Z" fill="#514AF3"/>
</g>
<mask id="mask2_732_6060" style="mask-type:luminance" maskUnits="userSpaceOnUse" x="2" y="2" width="8" height="13">
<path d="M2.73926 2.1218H9.46697V14.9294H2.73926V2.1218Z" fill="white"/>
</mask>
<g mask="url(#mask2_732_6060)">
<path d="M8.29657 14.914H3.7906C3.75362 14.914 3.71682 14.9122 3.68023 14.9087C3.64344 14.905 3.60703 14.8996 3.57082 14.8924C3.53462 14.8852 3.49899 14.8762 3.46356 14.8655C3.42833 14.8548 3.39368 14.8423 3.35942 14.8283C3.32535 14.8141 3.29206 14.7983 3.25955 14.781C3.22704 14.7637 3.19551 14.7446 3.16475 14.7242C3.13399 14.7037 3.1044 14.6817 3.07598 14.6584C3.04736 14.635 3.02011 14.6103 2.99402 14.5842C2.96794 14.5579 2.94322 14.5307 2.91986 14.5023C2.8965 14.4736 2.8745 14.444 2.85386 14.4135C2.83342 14.3827 2.81454 14.3512 2.79722 14.3185C2.7797 14.286 2.76393 14.2527 2.74991 14.2186C2.7357 14.1846 2.72324 14.1499 2.71253 14.1145C2.70183 14.0792 2.69287 14.0434 2.68567 14.0074C2.67847 13.9712 2.67321 13.9346 2.66951 13.898C2.66601 13.8612 2.66406 13.8244 2.66406 13.7876V5.52652C2.66406 5.47124 2.66543 5.41595 2.66815 5.36067C2.67088 5.30558 2.67496 5.25029 2.68041 5.19539C2.68587 5.1403 2.69248 5.08541 2.70066 5.03071C2.70884 4.976 2.71818 4.9215 2.72908 4.86718C2.73979 4.81307 2.75186 4.75914 2.76529 4.70542C2.77892 4.65169 2.79352 4.59854 2.80967 4.54559C2.82564 4.49264 2.84296 4.44008 2.86165 4.38811C2.88034 4.33594 2.90019 4.28435 2.92141 4.23335C2.94244 4.18215 2.96502 4.13154 2.98857 4.0817C3.01213 4.03167 3.03705 3.98223 3.06313 3.93356C3.08922 3.8847 3.11647 3.83661 3.14489 3.78912C3.17331 3.74162 3.2029 3.6949 3.23366 3.64895C3.26442 3.60301 3.29615 3.55785 3.32924 3.51347C3.36214 3.46889 3.39621 3.42528 3.43125 3.38265C3.46629 3.33982 3.5025 3.29797 3.53948 3.25709C3.57666 3.21601 3.61482 3.17591 3.65395 3.13698C3.69308 3.09785 3.73318 3.0597 3.77406 3.02251C3.81513 2.98533 3.85699 2.94932 3.89962 2.91408C3.94244 2.87904 3.98605 2.84498 4.03043 2.81208C4.07482 2.77918 4.11998 2.74725 4.16612 2.71669C4.21206 2.68593 4.25878 2.65635 4.30628 2.62792C4.35358 2.5995 4.40167 2.57225 4.45053 2.54616C4.49939 2.52008 4.54864 2.49516 4.59867 2.47161C4.6487 2.44786 4.69931 2.42547 4.75032 2.40425C4.80151 2.38323 4.8531 2.36318 4.90508 2.34468C4.95725 2.32599 5.00961 2.30867 5.06256 2.29251C5.11551 2.27655 5.16885 2.26175 5.22238 2.24832C5.27611 2.23489 5.33004 2.22282 5.38435 2.21192C5.43846 2.20121 5.49297 2.19167 5.54767 2.18369C5.60238 2.17552 5.65727 2.1687 5.71236 2.16325C5.76745 2.158 5.82254 2.15391 5.87783 2.15118C5.93312 2.14846 5.98821 2.14709 6.04369 2.14709C6.09897 2.14709 6.15426 2.14846 6.20935 2.15118C6.26463 2.15391 6.31973 2.158 6.37482 2.16325C6.42991 2.1687 6.4848 2.17552 6.5395 2.18369C6.59421 2.19167 6.64871 2.20121 6.70283 2.21192C6.75714 2.22282 6.81107 2.23489 6.86479 2.24832C6.91833 2.26175 6.97167 2.27655 7.02462 2.29251C7.07757 2.30867 7.13013 2.32599 7.1821 2.34468C7.23427 2.36318 7.28586 2.38323 7.33686 2.40425C7.38806 2.42547 7.43848 2.44786 7.48851 2.47161C7.53854 2.49516 7.58798 2.52008 7.63665 2.54616C7.68551 2.57225 7.7336 2.5995 7.78109 2.62792C7.8284 2.65635 7.87512 2.68593 7.92106 2.71669C7.9672 2.74725 8.01236 2.77918 8.05674 2.81208C8.10113 2.84498 8.14473 2.87904 8.18756 2.91408C8.23039 2.94932 8.27224 2.98533 8.31312 3.02251C8.3542 3.0597 8.3941 3.09785 8.43323 3.13698C8.47236 3.17591 8.51051 3.21601 8.5477 3.25709C8.58488 3.29797 8.62089 3.33982 8.65593 3.38265C8.69117 3.42528 8.72504 3.46889 8.75813 3.51347C8.79103 3.55785 8.82276 3.60301 8.85352 3.64895C8.88428 3.6949 8.91387 3.74162 8.94229 3.78912C8.97071 3.83661 8.99796 3.8847 9.02405 3.93356C9.05013 3.98223 9.07505 4.03167 9.09861 4.0817C9.12235 4.13154 9.14474 4.18215 9.16577 4.23335C9.18698 4.28435 9.20684 4.33594 9.22553 4.38811C9.24422 4.44008 9.26154 4.49264 9.2775 4.54559C9.29366 4.59854 9.30846 4.65169 9.32189 4.70542C9.33532 4.75914 9.34739 4.81307 9.3581 4.86718C9.369 4.9215 9.37834 4.976 9.38652 5.03071C9.39469 5.08541 9.40151 5.1403 9.40676 5.19539C9.41221 5.25029 9.4163 5.30558 9.41903 5.36067C9.42175 5.41595 9.42312 5.47124 9.42312 5.52652V13.7876C9.42312 13.8244 9.42136 13.8612 9.41767 13.898C9.41416 13.9346 9.40871 13.9712 9.40151 14.0074C9.39431 14.0434 9.38535 14.0792 9.37464 14.1145C9.36394 14.1499 9.35148 14.1846 9.33727 14.2186C9.32325 14.2527 9.30748 14.286 9.29016 14.3185C9.27264 14.3512 9.25376 14.3827 9.23332 14.4135C9.21268 14.444 9.19088 14.4736 9.16732 14.5023C9.14396 14.5307 9.11924 14.5579 9.09315 14.5842C9.06707 14.6103 9.03982 14.635 9.0112 14.6584C8.98278 14.6817 8.95319 14.7037 8.92243 14.7242C8.89187 14.7446 8.86014 14.7637 8.82763 14.781C8.79512 14.7983 8.76183 14.8141 8.72776 14.8283C8.6937 14.8423 8.65885 14.8548 8.62362 14.8655C8.58838 14.8762 8.55256 14.8852 8.51635 14.8924C8.48015 14.8996 8.44374 14.905 8.40695 14.9087C8.37035 14.9122 8.33356 14.914 8.29657 14.914ZM4.91715 12.6611H7.17003V5.52652C7.17003 5.48973 7.16828 5.45294 7.16478 5.41615C7.16108 5.37935 7.15563 5.34295 7.14843 5.30674C7.14122 5.27054 7.13227 5.23491 7.12156 5.19948C7.11085 5.16425 7.0984 5.1296 7.08438 5.09553C7.07017 5.06146 7.0544 5.02798 7.03708 4.99547C7.01975 4.96296 7.00067 4.93142 6.98023 4.90067C6.95979 4.8701 6.93779 4.84051 6.91443 4.8119C6.89107 4.78348 6.86616 4.75603 6.84007 4.72994C6.81399 4.70386 6.78673 4.67914 6.75831 4.65578C6.7297 4.63242 6.70011 4.61042 6.66954 4.58998C6.63879 4.56934 6.60725 4.55046 6.57455 4.53313C6.54204 4.51561 6.50875 4.49985 6.47468 4.48583C6.44061 4.47162 6.40596 4.45936 6.37053 4.44865C6.3353 4.43794 6.29948 4.42899 6.26347 4.42179C6.22726 4.41458 6.19066 4.40913 6.15406 4.40543C6.11727 4.40193 6.08048 4.39998 6.04369 4.39998C6.0067 4.39998 5.96991 4.40193 5.93312 4.40543C5.89652 4.40913 5.86011 4.41458 5.82391 4.42179C5.7877 4.42899 5.75188 4.43794 5.71664 4.44865C5.68122 4.45936 5.64656 4.47162 5.6125 4.48583C5.57843 4.49985 5.54514 4.51561 5.51263 4.53313C5.48012 4.55046 5.44839 4.56934 5.41783 4.58998C5.38707 4.61042 5.35748 4.63242 5.32887 4.65578C5.30045 4.67914 5.27319 4.70386 5.24711 4.72994C5.22102 4.75603 5.1963 4.78348 5.17274 4.8119C5.14938 4.84051 5.12739 4.8701 5.10695 4.90067C5.08651 4.93142 5.06743 4.96296 5.0501 4.99547C5.03278 5.02798 5.01701 5.06146 5.0028 5.09553C4.98878 5.1296 4.97632 5.16425 4.96562 5.19948C4.95491 5.23491 4.94596 5.27054 4.93875 5.30674C4.93155 5.34295 4.9261 5.37935 4.9226 5.41615C4.9189 5.45294 4.91715 5.48973 4.91715 5.52652V12.6611Z" fill="#514AF3"/>
</g>
</g>
<defs>
<filter id="filter0_d_732_6060" x="0.159803" y="0.832068" width="37.4021" height="37.4021" filterUnits="userSpaceOnUse" color-interpolation-filters="sRGB">
<feFlood flood-opacity="0" result="BackgroundImageFix"/>
<feColorMatrix in="SourceAlpha" type="matrix" values="0 0 0 0 0 0 0 0 0 0 0 0 0 0 0 0 0 0 127 0" result="hardAlpha"/>
<feOffset dy="1.28973"/>
<feGaussianBlur stdDeviation="1.28973"/>
<feComposite in2="hardAlpha" operator="out"/>
<feColorMatrix type="matrix" values="0 0 0 0 0 0 0 0 0 0 0 0 0 0 0 0 0 0 0.05 0"/>
<feBlend mode="normal" in2="BackgroundImageFix" result="effect1_dropShadow_732_6060"/>
<feBlend mode="normal" in="SourceGraphic" in2="effect1_dropShadow_732_6060" result="shape"/>
</filter>
</defs>
</svg>
