<svg width="38" height="39" viewBox="0 0 38 39" fill="none" xmlns="http://www.w3.org/2000/svg">
<g filter="url(#filter0_d_732_6056)">
<path d="M29.9445 7.03885H7.41443C7.37764 7.03928 7.34104 7.04185 7.30445 7.04615C7.26804 7.05065 7.23164 7.05709 7.19582 7.06525C7.15981 7.07362 7.12418 7.08392 7.08914 7.09594C7.0541 7.10796 7.01965 7.12192 6.98577 7.13759C6.9519 7.15347 6.91881 7.17085 6.8863 7.19017C6.85398 7.20949 6.82264 7.23053 6.79208 7.25306C6.76171 7.27582 6.73212 7.29986 6.7039 7.32561C6.67547 7.35137 6.64822 7.37863 6.62233 7.40739C6.59624 7.43594 6.57152 7.46599 6.54816 7.49733C6.5248 7.52867 6.5028 7.56108 6.48236 7.59456C6.46192 7.62826 6.44285 7.66303 6.42533 7.69866C6.40781 7.7343 6.39204 7.77078 6.37763 7.80813C6.36342 7.84548 6.35077 7.88347 6.33987 7.92211C6.32877 7.96074 6.31962 8.00002 6.31203 8.03973C6.30463 8.07944 6.29879 8.11937 6.2947 8.15972C6.29081 8.19986 6.28848 8.24043 6.28809 8.28099V31.4668C6.28848 31.5615 6.29315 31.6562 6.30191 31.7504C6.31086 31.8446 6.3239 31.9382 6.34104 32.0311C6.35817 32.1239 6.37919 32.2157 6.4045 32.3063C6.4298 32.3969 6.459 32.4858 6.4921 32.5733C6.52519 32.6607 6.56198 32.7463 6.60267 32.8298C6.64335 32.9131 6.68774 32.9942 6.73563 33.073C6.78332 33.1518 6.83452 33.2278 6.88922 33.301C6.94373 33.3742 7.00135 33.4444 7.06228 33.5113C7.12302 33.5783 7.18667 33.6418 7.25305 33.7021C7.31943 33.7622 7.38835 33.8187 7.45979 33.8715C7.53104 33.9243 7.60462 33.973 7.68035 34.0179C7.75607 34.0627 7.83355 34.1035 7.91298 34.14C7.99221 34.1765 8.07299 34.2087 8.15514 34.2366C8.23729 34.2643 8.32042 34.2877 8.40471 34.3066C8.489 34.3255 8.57387 34.3398 8.65933 34.3495C8.74479 34.3594 8.83044 34.3645 8.91649 34.365H28.4424C28.5285 34.3645 28.6141 34.3594 28.6996 34.3495C28.7852 34.3398 28.8701 34.3255 28.9542 34.3066C29.0385 34.2877 29.1216 34.2643 29.2038 34.2366C29.2859 34.2087 29.3667 34.1765 29.4461 34.14C29.5254 34.1035 29.6028 34.0627 29.6786 34.0179C29.7543 33.973 29.8279 33.9243 29.8993 33.8715C29.9708 33.8187 30.0397 33.7622 30.1061 33.7021C30.1724 33.6418 30.2361 33.5783 30.2968 33.5113C30.3576 33.4444 30.4152 33.3742 30.4699 33.301C30.5244 33.2278 30.5756 33.1518 30.6235 33.073C30.6714 32.9942 30.7156 32.9131 30.7562 32.8298C30.7969 32.7463 30.8339 32.6607 30.867 32.5733C30.9001 32.4858 30.9293 32.3969 30.9544 32.3063C30.9797 32.2157 31.0009 32.1239 31.0181 32.0311C31.0352 31.9382 31.0482 31.8446 31.057 31.7504C31.0658 31.6562 31.0704 31.5615 31.071 31.4668V8.28099C31.0704 8.24043 31.0683 8.19986 31.0642 8.15972C31.0603 8.11937 31.0545 8.07944 31.0469 8.03973C31.0395 8.00002 31.0301 7.96074 31.0192 7.92211C31.0083 7.88347 30.9957 7.84548 30.9813 7.80813C30.9671 7.77078 30.9511 7.7343 30.9336 7.69866C30.9163 7.66303 30.8972 7.62826 30.8765 7.59456C30.8561 7.56108 30.8341 7.52867 30.8107 7.49733C30.7874 7.46599 30.7627 7.43594 30.7368 7.40739C30.7107 7.37863 30.6836 7.35137 30.6552 7.32561C30.6268 7.29986 30.5974 7.27582 30.5668 7.25306C30.5365 7.23053 30.5049 7.20949 30.4726 7.19017C30.4403 7.17085 30.4072 7.15347 30.3733 7.13759C30.3395 7.12192 30.305 7.10796 30.2698 7.09594C30.2347 7.08392 30.1993 7.07362 30.1633 7.06525C30.1273 7.05709 30.0911 7.05065 30.0545 7.04615C30.0179 7.04185 29.9813 7.03928 29.9445 7.03885ZM23.9365 22.4078L20.4969 26.2003C20.4357 26.2673 20.3717 26.3306 20.3049 26.3907C20.2382 26.4508 20.1689 26.5071 20.0972 26.5596C20.0254 26.6122 19.9514 26.661 19.8753 26.7054C19.7992 26.75 19.7213 26.7904 19.6417 26.8267C19.5619 26.8629 19.4809 26.8947 19.3984 26.9222C19.3158 26.9497 19.2323 26.9726 19.1478 26.9911C19.0633 27.0095 18.9781 27.0233 18.8924 27.0327C18.8066 27.042 18.7205 27.0465 18.6345 27.0465C18.5483 27.0465 18.4622 27.042 18.3766 27.0327C18.2907 27.0233 18.2056 27.0095 18.1211 26.9911C18.0365 26.9726 17.953 26.9497 17.8704 26.9222C17.7881 26.8947 17.7069 26.8629 17.6273 26.8267C17.5475 26.7904 17.4696 26.75 17.3935 26.7054C17.3176 26.661 17.2436 26.6122 17.1718 26.5596C17.0999 26.5071 17.0306 26.4508 16.9639 26.3907C16.8971 26.3306 16.833 26.2673 16.7719 26.2003L13.3775 22.4078C13.3528 22.3786 13.3296 22.3483 13.3076 22.3168C13.2856 22.2852 13.2652 22.2526 13.2461 22.2189C13.227 22.185 13.2093 22.1504 13.1933 22.1148C13.1772 22.0792 13.1628 22.0429 13.1497 22.0058C13.1369 21.9686 13.1256 21.9309 13.1161 21.8926C13.1063 21.8542 13.0983 21.8156 13.0921 21.7763C13.0859 21.7372 13.0814 21.6977 13.0785 21.658C13.0758 21.6185 13.0746 21.5788 13.0752 21.5391C13.0759 21.4992 13.0783 21.4597 13.0824 21.4202C13.0865 21.3807 13.0923 21.3414 13.0997 21.3026C13.1073 21.2635 13.1164 21.2253 13.1273 21.1873C13.138 21.1493 13.1505 21.1122 13.1647 21.0755C13.1787 21.0388 13.1945 21.0032 13.2116 20.9682C13.2288 20.9332 13.2475 20.8993 13.2677 20.8662C13.2879 20.8334 13.3094 20.8016 13.3323 20.7709C13.3553 20.7402 13.3794 20.7108 13.4049 20.6827C13.4304 20.6546 13.4571 20.6277 13.4849 20.6024C13.5128 20.5773 13.5418 20.5535 13.5716 20.5312C13.6016 20.509 13.6323 20.4884 13.664 20.4693C13.6958 20.4505 13.7281 20.4331 13.7614 20.4176C13.7945 20.4022 13.8283 20.3884 13.8628 20.3764C13.8971 20.3644 13.9319 20.3543 13.9671 20.3459C14.0026 20.3378 14.038 20.3313 14.0738 20.3268C14.1096 20.3223 14.1456 20.3197 14.1817 20.3191C14.2179 20.3182 14.2537 20.3195 14.2897 20.3227C14.3257 20.3257 14.3613 20.3307 14.397 20.3375C14.4324 20.3446 14.4676 20.3532 14.5023 20.3639C14.5371 20.3745 14.5714 20.3869 14.6051 20.4013C14.6387 20.4155 14.6716 20.4313 14.704 20.4492C14.7363 20.467 14.7676 20.4863 14.7982 20.5073C14.8287 20.5284 14.8585 20.5511 14.8871 20.5752C14.9158 20.5994 14.9432 20.6252 14.9695 20.6522L17.5529 23.5008V14.9053C17.5529 14.8648 17.5549 14.8242 17.5584 14.7836C17.5621 14.7433 17.5675 14.7029 17.5747 14.663C17.5819 14.6233 17.5909 14.5838 17.6016 14.545C17.6123 14.5059 17.6246 14.4677 17.6388 14.4301C17.6528 14.3926 17.6685 14.3558 17.6861 14.32C17.7034 14.2839 17.7223 14.2492 17.7429 14.2153C17.7634 14.1816 17.7853 14.1489 17.8087 14.1174C17.8321 14.086 17.8568 14.056 17.8829 14.0272C17.909 13.9985 17.9364 13.971 17.9648 13.9452C17.9934 13.9195 18.023 13.8952 18.0536 13.8727C18.0844 13.8501 18.1159 13.8291 18.1484 13.81C18.1809 13.7909 18.2144 13.7735 18.2485 13.7579C18.2825 13.7424 18.3172 13.7287 18.3524 13.7169C18.3878 13.705 18.4235 13.6952 18.4597 13.6872C18.4959 13.6793 18.5323 13.6733 18.5691 13.6694C18.6059 13.6653 18.6427 13.6634 18.6795 13.6634C18.7164 13.6634 18.7532 13.6653 18.7898 13.6694C18.8266 13.6733 18.863 13.6793 18.8992 13.6872C18.9354 13.6952 18.9713 13.705 19.0065 13.7169C19.0417 13.7287 19.0766 13.7424 19.1106 13.7579C19.1447 13.7735 19.178 13.7909 19.2105 13.81C19.243 13.8291 19.2747 13.8501 19.3053 13.8727C19.3361 13.8952 19.3657 13.9195 19.3941 13.9452C19.4227 13.971 19.45 13.9985 19.476 14.0272C19.5021 14.056 19.5268 14.086 19.5502 14.1174C19.5738 14.1489 19.5956 14.1816 19.6162 14.2153C19.6366 14.2492 19.6555 14.2839 19.673 14.32C19.6904 14.3558 19.7061 14.3926 19.7203 14.4301C19.7344 14.4677 19.7468 14.5059 19.7575 14.545C19.7682 14.5838 19.7772 14.6233 19.7844 14.663C19.7916 14.7029 19.797 14.7433 19.8005 14.7836C19.8042 14.8242 19.806 14.8648 19.806 14.9053V23.5008L22.3894 20.6522C22.4159 20.6252 22.4434 20.5994 22.472 20.5752C22.5006 20.5511 22.5302 20.5284 22.5607 20.5073C22.5913 20.4863 22.6228 20.467 22.6552 20.4492C22.6873 20.4313 22.7204 20.4155 22.754 20.4013C22.7877 20.3869 22.8218 20.3745 22.8566 20.3639C22.8915 20.3532 22.9265 20.3446 22.9621 20.3378C22.9976 20.3307 23.0334 20.3257 23.0692 20.3227C23.1052 20.3195 23.1412 20.3182 23.1772 20.3191C23.2133 20.3197 23.2493 20.3223 23.2851 20.3268C23.3209 20.3313 23.3565 20.3378 23.3918 20.3459C23.427 20.3543 23.4619 20.3644 23.4963 20.3764C23.5308 20.3884 23.5644 20.4022 23.5977 20.4176C23.6308 20.4331 23.6633 20.4505 23.6951 20.4693C23.7266 20.4884 23.7576 20.509 23.7873 20.5312C23.8173 20.5535 23.8461 20.5773 23.874 20.6024C23.9018 20.6277 23.9285 20.6546 23.954 20.6827C23.9795 20.7108 24.0036 20.7402 24.0266 20.7709C24.0496 20.8016 24.0712 20.8334 24.0912 20.8662C24.1115 20.8993 24.1301 20.9332 24.1473 20.9682C24.1646 21.0032 24.1802 21.039 24.1944 21.0755C24.2084 21.1122 24.2209 21.1493 24.2318 21.1873C24.2427 21.2253 24.2518 21.2635 24.2592 21.3026C24.2668 21.3414 24.2726 21.3807 24.2767 21.4202C24.2808 21.4597 24.2832 21.4992 24.2837 21.5391C24.2843 21.5788 24.2834 21.6185 24.2804 21.658C24.2777 21.6977 24.273 21.7372 24.2668 21.7763C24.2606 21.8156 24.2526 21.8542 24.2431 21.8926C24.2333 21.9309 24.222 21.9686 24.2092 22.0058C24.1963 22.0429 24.1817 22.0792 24.1658 22.1148C24.1496 22.1504 24.1321 22.185 24.113 22.2189C24.0937 22.2526 24.0733 22.2852 24.0513 22.3168C24.0295 22.3483 24.0061 22.3786 23.9816 22.4078H23.9365Z" fill="#514AF3"/>
<mask id="mask0_732_6056" style="mask-type:luminance" maskUnits="userSpaceOnUse" x="2" y="2" width="33" height="16">
<path d="M2.60791 2.1218H34.8511V17.806H2.60791V2.1218Z" fill="white"/>
</mask>
<g mask="url(#mask0_732_6056)">
<path d="M33.6992 17.8037C33.6626 17.803 33.6258 17.8007 33.5894 17.7962C33.5528 17.7919 33.5166 17.7854 33.4806 17.7771C33.4446 17.7689 33.4089 17.7586 33.3739 17.7466C33.3389 17.7346 33.3044 17.7206 33.2705 17.7047C33.2367 17.6891 33.2036 17.6715 33.1712 17.6521C33.1387 17.633 33.1074 17.612 33.0768 17.5895C33.0465 17.5667 33.0169 17.5425 32.9887 17.5167C32.9602 17.4909 32.933 17.4637 32.9071 17.4351C32.881 17.4064 32.8563 17.3765 32.8329 17.3452C32.8096 17.3139 32.7876 17.2815 32.7671 17.2478C32.7467 17.2143 32.7276 17.1795 32.7101 17.1439C32.6926 17.1082 32.6768 17.0717 32.6624 17.0344C32.6482 16.9971 32.6355 16.9591 32.6246 16.9202C32.6135 16.8816 32.6044 16.8425 32.5968 16.8028C32.5894 16.7631 32.5835 16.7232 32.5795 16.6828C32.5756 16.6425 32.5732 16.6021 32.5728 16.5615V4.96862C32.5728 4.94136 32.5703 4.91453 32.5656 4.88791C32.5608 4.8613 32.5536 4.83533 32.5442 4.81021C32.5347 4.7851 32.5232 4.76127 32.5096 4.73852C32.4958 4.71598 32.4802 4.69516 32.4629 4.67584C32.4453 4.65674 32.4265 4.63957 32.4058 4.62433C32.3854 4.6093 32.3638 4.59643 32.341 4.58612C32.3182 4.57582 32.2947 4.56788 32.2705 4.56251C32.2464 4.55736 32.2219 4.55457 32.1973 4.55457H5.16131C5.13659 4.55457 5.11225 4.55736 5.08792 4.56251C5.06378 4.56788 5.04042 4.57582 5.01765 4.58612C4.99487 4.59643 4.97307 4.6093 4.95263 4.62433C4.93219 4.63957 4.91311 4.65674 4.89578 4.67584C4.87826 4.69516 4.86269 4.71598 4.84906 4.73852C4.83544 4.76127 4.82376 4.7851 4.81441 4.81021C4.80487 4.83533 4.79787 4.8613 4.793 4.88791C4.78813 4.91453 4.7858 4.94136 4.7858 4.96862V16.5615C4.7858 16.6023 4.78405 16.6429 4.78035 16.6832C4.77665 16.7238 4.77139 16.764 4.76419 16.8039C4.75699 16.8438 4.74803 16.8833 4.73733 16.9221C4.72662 16.961 4.71416 16.9994 4.69995 17.037C4.68593 17.0745 4.67016 17.1112 4.65264 17.1471C4.63532 17.1829 4.61644 17.2179 4.596 17.2516C4.57536 17.2855 4.55336 17.3182 4.53 17.3495C4.50664 17.3811 4.48192 17.4111 4.45584 17.4399C4.42975 17.4686 4.4025 17.4959 4.37388 17.5216C4.34546 17.5476 4.31587 17.5717 4.28511 17.5944C4.25435 17.6169 4.22282 17.6378 4.19031 17.6571C4.1578 17.6762 4.12451 17.6936 4.09044 17.709C4.05618 17.7247 4.02153 17.7384 3.9863 17.7502C3.95087 17.762 3.91524 17.7719 3.87904 17.7799C3.84283 17.7878 3.80642 17.7938 3.76963 17.7977C3.73304 17.8018 3.69624 17.8037 3.65926 17.8037C3.62227 17.8037 3.58548 17.8018 3.54888 17.7977C3.51209 17.7936 3.47568 17.7878 3.43948 17.7799C3.40327 17.7719 3.36764 17.762 3.33221 17.7502C3.29698 17.7384 3.26233 17.7247 3.22807 17.709C3.194 17.6936 3.16071 17.6762 3.1282 17.6571C3.09569 17.6378 3.06416 17.6169 3.0334 17.5944C3.00264 17.5717 2.97305 17.5476 2.94463 17.5216C2.91602 17.4959 2.88876 17.4686 2.86268 17.4399C2.83659 17.4111 2.81187 17.3811 2.78851 17.3495C2.76515 17.3182 2.74315 17.2855 2.72252 17.2516C2.70208 17.2179 2.68319 17.1829 2.66587 17.1471C2.64835 17.1112 2.63258 17.0745 2.61856 17.037C2.60435 16.9994 2.59189 16.961 2.58119 16.9221C2.57048 16.8833 2.56153 16.8438 2.55432 16.8039C2.54712 16.764 2.54186 16.7238 2.53817 16.6832C2.53466 16.6429 2.53271 16.6023 2.53271 16.5615V4.96862C2.5333 4.87396 2.53797 4.7793 2.54673 4.68507C2.55569 4.59085 2.56853 4.49726 2.58566 4.40432C2.6028 4.31159 2.62401 4.21973 2.64932 4.12915C2.67443 4.03857 2.70363 3.94949 2.73673 3.86213C2.77001 3.77455 2.80681 3.68913 2.84749 3.60563C2.88818 3.52213 2.93237 3.441 2.98026 3.36244C3.02814 3.28366 3.07934 3.20768 3.13404 3.13449C3.18855 3.06129 3.24617 2.9911 3.30691 2.92413C3.36784 2.85717 3.4313 2.79342 3.49768 2.73332C3.56406 2.67322 3.63298 2.61655 3.70442 2.56396C3.77586 2.51116 3.84945 2.46222 3.92517 2.41736C4.0009 2.37271 4.07838 2.33193 4.15761 2.29544C4.23703 2.25895 4.31782 2.22676 4.39997 2.19885C4.48212 2.17095 4.56524 2.14777 4.64953 2.12888C4.73382 2.10999 4.8185 2.09561 4.90416 2.08595C4.98961 2.07608 5.07527 2.07092 5.16131 2.0705H32.1973C32.2832 2.07092 32.369 2.07608 32.4545 2.08595C32.5399 2.09561 32.6248 2.10999 32.7091 2.12888C32.7932 2.14777 32.8765 2.17095 32.9587 2.19885C33.0408 2.22676 33.1216 2.25895 33.2008 2.29544C33.2801 2.33193 33.3577 2.37271 33.4335 2.41736C33.5092 2.46222 33.5826 2.51116 33.654 2.56396C33.7255 2.61655 33.7944 2.67322 33.8608 2.73332C33.9271 2.79342 33.9908 2.85717 34.0515 2.92413C34.1123 2.9911 34.1701 3.06129 34.2246 3.13449C34.2791 3.20768 34.3303 3.28366 34.3782 3.36244C34.4261 3.441 34.4703 3.52213 34.511 3.60563C34.5516 3.68913 34.5886 3.77455 34.6217 3.86213C34.6548 3.94949 34.684 4.03857 34.7093 4.12915C34.7344 4.21973 34.7556 4.31159 34.7728 4.40432C34.7899 4.49726 34.803 4.59085 34.8117 4.68507C34.8207 4.7793 34.8253 4.87396 34.8257 4.96862V16.5615C34.8253 16.6021 34.823 16.6425 34.8191 16.6828C34.815 16.7232 34.8092 16.7631 34.8018 16.8028C34.7942 16.8425 34.7849 16.8816 34.7739 16.9202C34.763 16.9591 34.7504 16.9971 34.7362 17.0344C34.7218 17.0717 34.706 17.1082 34.6885 17.1439C34.671 17.1795 34.6519 17.2143 34.6315 17.2478C34.6108 17.2815 34.589 17.3139 34.5657 17.3452C34.5423 17.3765 34.5176 17.4064 34.4915 17.4351C34.4656 17.4637 34.4383 17.4909 34.4099 17.5167C34.3815 17.5425 34.3521 17.5667 34.3217 17.5895C34.2912 17.612 34.2596 17.633 34.2273 17.6521C34.195 17.6715 34.1619 17.6891 34.128 17.7047C34.0942 17.7206 34.0597 17.7346 34.0247 17.7466C33.9896 17.7586 33.954 17.7689 33.918 17.7771C33.882 17.7854 33.8458 17.7919 33.8092 17.7962C33.7728 17.8007 33.736 17.803 33.6992 17.8037Z" fill="#514AF3"/>
</g>
</g>
<defs>
<filter id="filter0_d_732_6056" x="0.0284557" y="0.832068" width="37.4021" height="37.4021" filterUnits="userSpaceOnUse" color-interpolation-filters="sRGB">
<feFlood flood-opacity="0" result="BackgroundImageFix"/>
<feColorMatrix in="SourceAlpha" type="matrix" values="0 0 0 0 0 0 0 0 0 0 0 0 0 0 0 0 0 0 127 0" result="hardAlpha"/>
<feOffset dy="1.28973"/>
<feGaussianBlur stdDeviation="1.28973"/>
<feComposite in2="hardAlpha" operator="out"/>
<feColorMatrix type="matrix" values="0 0 0 0 0 0 0 0 0 0 0 0 0 0 0 0 0 0 0.05 0"/>
<feBlend mode="normal" in2="BackgroundImageFix" result="effect1_dropShadow_732_6056"/>
<feBlend mode="normal" in="SourceGraphic" in2="effect1_dropShadow_732_6056" result="shape"/>
</filter>
</defs>
</svg>
