<svg width="45" height="45" viewBox="0 0 45 45" fill="none" xmlns="http://www.w3.org/2000/svg">
<g filter="url(#filter0_d_732_6074)">
<path d="M18.7137 11.6383V30.8519C18.7146 30.9466 18.7039 31.0399 18.682 31.1318C18.6601 31.2241 18.6274 31.3123 18.584 31.3963C18.5411 31.4807 18.4884 31.5582 18.4268 31.63C18.3648 31.7014 18.2953 31.7648 18.2183 31.8194C18.1441 31.873 18.0648 31.9174 17.9804 31.9523C17.8955 31.9873 17.8082 32.0116 17.7177 32.0261C17.6272 32.0401 17.5367 32.0433 17.4453 32.0363C17.3543 32.0289 17.2652 32.0111 17.1784 31.9827L12.6617 30.4833C12.5442 30.4427 12.4359 30.3849 12.3361 30.3107C12.2367 30.2361 12.1509 30.1479 12.079 30.0467C12.0067 29.9454 11.9517 29.8353 11.9139 29.7168C11.8766 29.5984 11.8575 29.4771 11.8579 29.3525V13.1376C11.8575 13.0131 11.8766 12.8918 11.9139 12.7733C11.9517 12.6548 12.0067 12.5447 12.079 12.4435C12.1509 12.3422 12.2367 12.2541 12.3361 12.1794C12.4359 12.1053 12.5446 12.0474 12.6617 12.0068L17.1784 10.5075C17.2652 10.479 17.3543 10.4613 17.4453 10.4538C17.5367 10.4468 17.6272 10.4501 17.7177 10.4641C17.8082 10.4785 17.8955 10.5028 17.9804 10.5378C18.0648 10.5728 18.1441 10.6171 18.2183 10.6707C18.2953 10.7253 18.3648 10.7888 18.4268 10.8601C18.4884 10.932 18.5411 11.0094 18.584 11.0939C18.6274 11.1778 18.6601 11.266 18.682 11.3579C18.7039 11.4503 18.7146 11.5436 18.7137 11.6383Z" fill="#514AF3"/>
<path d="M22.2449 1.89807C21.9282 1.89807 21.6119 1.906 21.2956 1.9214C20.9793 1.93679 20.6635 1.96012 20.3486 1.99137C20.0337 2.02216 19.7193 2.06088 19.4062 2.10753C19.0928 2.15372 18.7811 2.20783 18.4704 2.26988C18.1602 2.33146 17.8509 2.40097 17.544 2.47794C17.237 2.55491 16.9319 2.63935 16.6287 2.73125C16.3259 2.82316 16.0255 2.92252 15.7269 3.02889C15.4288 3.13572 15.1335 3.24954 14.841 3.37084C14.5485 3.49213 14.2593 3.62042 13.9728 3.7557C13.6869 3.89099 13.4042 4.03328 13.1247 4.18256C12.8458 4.33184 12.57 4.48765 12.2985 4.65047C12.027 4.81328 11.7597 4.98262 11.4961 5.15849C11.233 5.33437 10.9741 5.51677 10.7199 5.70524C10.4656 5.89417 10.2161 6.08871 9.97114 6.28977C9.72669 6.49037 9.4869 6.69703 9.25225 6.90976C9.01759 7.12249 8.78854 7.34081 8.56462 7.56474C8.34069 7.78866 8.12237 8.01772 7.90964 8.25237C7.69691 8.48702 7.49025 8.72681 7.28965 8.97126C7.08859 9.21617 6.89405 9.46576 6.70512 9.72C6.51665 9.97425 6.33424 10.2332 6.15837 10.4963C5.9825 10.7598 5.81315 11.0272 5.65034 11.2987C5.48753 11.5702 5.33172 11.8459 5.18244 12.1248C5.03315 12.4043 4.89087 12.687 4.75558 12.973C4.62029 13.2594 4.49201 13.5486 4.37071 13.8411C4.24942 14.1336 4.13559 14.4289 4.02876 14.7275C3.9224 15.0256 3.82303 15.326 3.73113 15.6288C3.63923 15.932 3.55479 16.2371 3.47782 16.5441C3.40084 16.8515 3.33133 17.1603 3.26976 17.4706C3.20771 17.7813 3.1536 18.0929 3.10741 18.4064C3.06076 18.7194 3.02204 19.0338 2.99125 19.3487C2.95999 19.6636 2.93667 19.9794 2.92127 20.2957C2.90588 20.612 2.89795 20.9283 2.89795 21.2451C2.89795 21.5618 2.90588 21.8781 2.92127 22.1944C2.93667 22.5107 2.95999 22.8265 2.99125 23.1414C3.02204 23.4563 3.06076 23.7707 3.10741 24.0838C3.1536 24.3973 3.20771 24.7089 3.26976 25.0196C3.33133 25.3298 3.40084 25.6386 3.47782 25.9461C3.55479 26.253 3.63923 26.5581 3.73113 26.8614C3.82303 27.1641 3.9224 27.4645 4.02876 27.7626C4.13559 28.0612 4.24942 28.3565 4.37071 28.649C4.49201 28.9415 4.62029 29.2307 4.75558 29.5172C4.89087 29.8032 5.03315 30.0859 5.18244 30.3653C5.33172 30.6443 5.48753 30.92 5.65034 31.1915C5.81315 31.463 5.9825 31.7303 6.15837 31.9939C6.33424 32.257 6.51665 32.5159 6.70512 32.7701C6.89405 33.0244 7.08859 33.274 7.28965 33.5189C7.49025 33.7633 7.69691 34.0031 7.90964 34.2378C8.12237 34.4724 8.34069 34.7015 8.56462 34.9254C8.78854 35.1493 9.01759 35.3676 9.25225 35.5804C9.4869 35.7931 9.72669 35.9998 9.97114 36.2004C10.2161 36.4014 10.4656 36.596 10.7199 36.7849C10.9741 36.9734 11.233 37.1558 11.4961 37.3316C11.7597 37.5075 12.027 37.6769 12.2985 37.8397C12.57 38.0025 12.8458 38.1583 13.1247 38.3076C13.4042 38.4569 13.6869 38.5991 13.9728 38.7344C14.2593 38.8697 14.5485 38.998 14.841 39.1193C15.1335 39.2406 15.4288 39.3544 15.7269 39.4613C16.0255 39.5676 16.3259 39.667 16.6287 39.7589C16.9319 39.8508 17.237 39.9352 17.544 40.0122C17.8514 40.0892 18.1602 40.1587 18.4704 40.2203C18.7811 40.2823 19.0928 40.3364 19.4062 40.3826C19.7193 40.4293 20.0337 40.468 20.3486 40.4988C20.6635 40.53 20.9793 40.5533 21.2956 40.5687C21.6119 40.5841 21.9282 40.5921 22.2449 40.5921C22.5617 40.5921 22.878 40.5841 23.1943 40.5687C23.5106 40.5533 23.8264 40.53 24.1413 40.4988C24.4562 40.468 24.7706 40.4293 25.0836 40.3826C25.3971 40.3364 25.7088 40.2823 26.0195 40.2203C26.3297 40.1587 26.6385 40.0892 26.9459 40.0122C27.2529 39.9352 27.558 39.8508 27.8612 39.7589C28.164 39.667 28.4644 39.5676 28.7625 39.4613C29.0611 39.3544 29.3564 39.2406 29.6489 39.1193C29.9414 38.998 30.2306 38.8697 30.5171 38.7344C30.803 38.5991 31.0857 38.4569 31.3652 38.3076C31.6441 38.1583 31.9198 38.0025 32.1914 37.8397C32.4629 37.6769 32.7302 37.5075 32.9937 37.3316C33.2569 37.1558 33.5158 36.9734 33.77 36.7849C34.0243 36.596 34.2738 36.4014 34.5188 36.2004C34.7632 35.9998 35.003 35.7931 35.2376 35.5804C35.4723 35.3676 35.7014 35.1493 35.9253 34.9254C36.1492 34.7015 36.3675 34.4724 36.5803 34.2378C36.793 34.0031 36.9996 33.7633 37.2002 33.5189C37.4013 33.274 37.5958 33.0244 37.7848 32.7701C37.9732 32.5159 38.1557 32.257 38.3315 31.9939C38.5074 31.7303 38.6767 31.463 38.8396 31.1915C39.0024 30.92 39.1582 30.6443 39.3075 30.3653C39.4567 30.0859 39.599 29.8032 39.7343 29.5172C39.8696 29.2307 39.9979 28.9415 40.1192 28.649C40.2405 28.3565 40.3543 28.0612 40.4611 27.7626C40.5675 27.4645 40.6669 27.1641 40.7588 26.8614C40.8507 26.5581 40.9351 26.253 41.0121 25.9461C41.0891 25.6386 41.1586 25.3298 41.2201 25.0196C41.2822 24.7089 41.3363 24.3973 41.3825 24.0838C41.4291 23.7707 41.4679 23.4563 41.4986 23.1414C41.5299 22.8265 41.5532 22.5107 41.5686 22.1944C41.584 21.8781 41.5919 21.5618 41.5919 21.2451C41.5919 20.9283 41.584 20.612 41.5686 20.2957C41.5528 19.9794 41.5294 19.6641 41.4986 19.3487C41.4674 19.0338 41.4287 18.7194 41.382 18.4064C41.3358 18.0933 41.2817 17.7813 41.2197 17.471C41.1581 17.1603 41.0886 16.8515 41.0116 16.5445C40.9346 16.2371 40.8502 15.932 40.7583 15.6293C40.6664 15.326 40.567 15.0256 40.4602 14.7275C40.3538 14.4294 40.2395 14.1341 40.1187 13.8416C39.9974 13.5491 39.8691 13.2599 39.7338 12.9734C39.5986 12.6875 39.4558 12.4048 39.3065 12.1253C39.1577 11.8463 39.0014 11.5706 38.8386 11.2991C38.6758 11.0276 38.5065 10.7603 38.3306 10.4972C38.1547 10.2336 37.9723 9.97518 37.7838 9.72047C37.5954 9.46622 37.4004 9.21664 37.1998 8.97219C36.9987 8.72727 36.792 8.48749 36.5793 8.2533C36.3666 8.01865 36.1487 7.78913 35.9248 7.5652C35.7009 7.34128 35.4714 7.12342 35.2367 6.91069C35.0025 6.69797 34.7627 6.4913 34.5178 6.29024C34.2734 6.08964 34.0238 5.89464 33.7695 5.70617C33.5148 5.5177 33.2564 5.3353 32.9928 5.15943C32.7297 4.98355 32.4624 4.81421 32.1909 4.6514C31.9194 4.48859 31.6437 4.33231 31.3647 4.18302C31.0853 4.03421 30.8026 3.89146 30.5166 3.75617C30.2302 3.62088 29.9409 3.49259 29.6484 3.3713C29.3559 3.25001 29.0606 3.13618 28.7625 3.02982C28.4644 2.92299 28.164 2.82362 27.8608 2.73172C27.558 2.63982 27.2529 2.55538 26.9455 2.47841C26.6385 2.40143 26.3297 2.33192 26.019 2.27034C25.7088 2.2083 25.3967 2.15418 25.0836 2.108C24.7706 2.06135 24.4562 2.02263 24.1413 1.99137C23.8259 1.96058 23.5106 1.93726 23.1943 1.9214C22.878 1.906 22.5617 1.89807 22.2449 1.89807ZM33.7383 21.6985L30.8665 24.6007L29.9475 23.6877L31.7248 21.8921H22.7045V20.598H27.3415V13.579C27.3415 13.508 27.3345 13.4381 27.3205 13.369C27.3066 13.3 27.286 13.2323 27.259 13.1675C27.2319 13.1022 27.1988 13.0401 27.1596 12.9814C27.1204 12.9226 27.0756 12.8685 27.0257 12.8185C26.9758 12.7686 26.9217 12.7238 26.8629 12.6847C26.8041 12.6455 26.7421 12.6123 26.6768 12.5853C26.6119 12.5582 26.5447 12.5377 26.4752 12.5237C26.4062 12.5097 26.3362 12.5027 26.2653 12.5027H20.008V29.9874H26.2653C26.3362 29.9874 26.4062 29.9804 26.4752 29.9664C26.5447 29.9524 26.6119 29.9319 26.6768 29.9048C26.7421 29.8778 26.8041 29.8447 26.8629 29.8055C26.9217 29.7663 26.9758 29.7215 27.0257 29.6716C27.0756 29.6217 27.1204 29.5676 27.1596 29.5088C27.1988 29.45 27.2319 29.388 27.259 29.3226C27.286 29.2578 27.3066 29.1902 27.3205 29.1211C27.3345 29.0521 27.3415 28.9821 27.3415 28.9112V22.9744H28.6417V28.9112C28.6412 28.9891 28.637 29.0665 28.6296 29.144C28.6216 29.2214 28.61 29.2979 28.5946 29.3744C28.5792 29.4505 28.5601 29.5256 28.5372 29.6002C28.5148 29.6744 28.4882 29.7476 28.4584 29.8195C28.4285 29.8913 28.3954 29.9613 28.3585 30.0299C28.3217 30.0984 28.282 30.1647 28.2386 30.2295C28.1952 30.2939 28.1491 30.3564 28.0996 30.4166C28.0502 30.4768 27.9984 30.5342 27.9433 30.5892C27.8883 30.6443 27.8309 30.696 27.7707 30.7455C27.7105 30.7949 27.648 30.8411 27.5837 30.8845C27.5188 30.9279 27.4526 30.9676 27.384 31.0044C27.3154 31.0413 27.2454 31.0744 27.1736 31.1042C27.1018 31.1341 27.0285 31.1607 26.9543 31.1831C26.8802 31.2059 26.8046 31.2251 26.7285 31.2405C26.652 31.2559 26.5755 31.2675 26.4981 31.275C26.4207 31.2829 26.3432 31.2871 26.2653 31.2876H19.9656C19.9418 31.4294 19.9054 31.5679 19.8569 31.7037C19.8088 31.839 19.7491 31.9691 19.6778 32.0942C19.6064 32.2192 19.5252 32.3372 19.4333 32.4478C19.3414 32.5588 19.2402 32.6605 19.1305 32.7538C19.0209 32.8466 18.9038 32.9292 18.7793 33.002C18.6552 33.0743 18.5255 33.1354 18.3907 33.1853C18.2554 33.2352 18.1173 33.2726 17.9755 33.2982C17.8341 33.3234 17.6914 33.3365 17.5472 33.3369C17.2804 33.336 17.0205 33.294 16.7672 33.2101L12.257 31.7107C12.1343 31.6696 12.0154 31.6197 11.9001 31.56C11.7849 31.5003 11.6753 31.4322 11.5713 31.3557C11.4668 31.2787 11.3693 31.1943 11.2783 31.1024C11.1869 31.01 11.1038 30.9116 11.0282 30.8061C10.9527 30.7012 10.886 30.5906 10.8276 30.4749C10.7693 30.3592 10.7208 30.2393 10.6812 30.1162C10.642 29.9926 10.6126 29.8671 10.593 29.7388C10.5729 29.6109 10.5636 29.4822 10.5641 29.3525V13.1376C10.5636 13.0079 10.5729 12.8792 10.593 12.7514C10.6126 12.6231 10.642 12.4976 10.6812 12.374C10.7208 12.2508 10.7693 12.1309 10.8276 12.0152C10.886 11.8995 10.9527 11.789 11.0282 11.684C11.1038 11.5786 11.1869 11.4801 11.2783 11.3878C11.3693 11.2959 11.4668 11.2114 11.5713 11.1345C11.6753 11.0579 11.7849 10.9898 11.9001 10.9301C12.0154 10.8704 12.1343 10.8205 12.257 10.7794L16.7672 9.28009C16.8512 9.2521 16.9361 9.22877 17.0229 9.21011C17.1092 9.19145 17.1959 9.17745 17.2841 9.16812C17.3718 9.15879 17.46 9.15413 17.5486 9.1546C17.6368 9.1546 17.725 9.15973 17.8127 9.16952C17.9004 9.17885 17.9876 9.19332 18.0739 9.21244C18.1602 9.23157 18.2451 9.25536 18.3291 9.28382C18.4126 9.31181 18.4947 9.34446 18.5749 9.38178C18.6552 9.41864 18.7331 9.46016 18.8087 9.50588C18.8847 9.55113 18.9575 9.60058 19.0279 9.65422C19.0984 9.70741 19.1655 9.76479 19.2299 9.82543C19.2943 9.88608 19.3549 9.94999 19.4123 10.0172C19.4697 10.0843 19.5233 10.1543 19.5733 10.2276C19.6227 10.3008 19.6684 10.3759 19.7099 10.4538C19.7519 10.5322 19.7893 10.612 19.8219 10.6941C19.855 10.7757 19.8835 10.8592 19.9077 10.9446C19.9315 11.0295 19.9511 11.1158 19.9656 11.2026H26.2653C26.3432 11.203 26.4207 11.2072 26.4981 11.2152C26.5755 11.2226 26.652 11.2343 26.7285 11.2497C26.8046 11.2651 26.8802 11.2842 26.9543 11.3071C27.0285 11.3295 27.1018 11.356 27.1736 11.3859C27.2454 11.4158 27.3154 11.4489 27.384 11.4857C27.4526 11.5226 27.5188 11.5622 27.5837 11.6056C27.648 11.649 27.7105 11.6952 27.7707 11.7446C27.8309 11.7941 27.8883 11.8459 27.9433 11.9009C27.9984 11.956 28.0502 12.0134 28.0996 12.0735C28.1491 12.1337 28.1952 12.1962 28.2386 12.2606C28.282 12.3254 28.3217 12.3917 28.3585 12.4603C28.3954 12.5288 28.4285 12.5988 28.4584 12.6707C28.4882 12.7425 28.5148 12.8157 28.5372 12.8899C28.5601 12.9646 28.5792 13.0397 28.5946 13.1157C28.61 13.1922 28.6216 13.2687 28.6296 13.3462C28.637 13.4236 28.6412 13.501 28.6417 13.579V20.598H31.7248L29.9475 18.8024L30.8665 17.8895L33.7383 20.7916C33.7677 20.8215 33.7943 20.8541 33.8171 20.8891C33.8405 20.9241 33.8601 20.961 33.8759 21.0002C33.8918 21.0389 33.9039 21.079 33.9118 21.12C33.9202 21.1616 33.924 21.2031 33.924 21.2451C33.924 21.2871 33.9202 21.3286 33.9118 21.3701C33.9039 21.4111 33.8918 21.4513 33.8759 21.49C33.8601 21.5292 33.8405 21.566 33.8171 21.601C33.7943 21.636 33.7677 21.6687 33.7383 21.6985Z" fill="#514AF3"/>
</g>
<defs>
<filter id="filter0_d_732_6074" x="0.317949" y="0.608071" width="43.8538" height="43.854" filterUnits="userSpaceOnUse" color-interpolation-filters="sRGB">
<feFlood flood-opacity="0" result="BackgroundImageFix"/>
<feColorMatrix in="SourceAlpha" type="matrix" values="0 0 0 0 0 0 0 0 0 0 0 0 0 0 0 0 0 0 127 0" result="hardAlpha"/>
<feOffset dy="1.29"/>
<feGaussianBlur stdDeviation="1.29"/>
<feComposite in2="hardAlpha" operator="out"/>
<feColorMatrix type="matrix" values="0 0 0 0 0 0 0 0 0 0 0 0 0 0 0 0 0 0 0.05 0"/>
<feBlend mode="normal" in2="BackgroundImageFix" result="effect1_dropShadow_732_6074"/>
<feBlend mode="normal" in="SourceGraphic" in2="effect1_dropShadow_732_6074" result="shape"/>
</filter>
</defs>
</svg>
