<svg width="45" height="45" viewBox="0 0 45 45" fill="none" xmlns="http://www.w3.org/2000/svg">
<g filter="url(#filter0_d_732_6052)">
<path d="M22.2434 1.89734C11.557 1.89734 2.89746 10.5569 2.89746 21.2432C2.89746 31.9296 11.557 40.5892 22.2434 40.5892C32.9298 40.5892 41.5893 31.9296 41.5893 21.2432C41.5725 10.5569 32.913 1.89734 22.2434 1.89734ZM32.6618 13.7728L28.8931 31.4438C28.7088 32.3315 27.6702 32.7168 26.9499 32.1808L18.0056 25.5144L27.888 16.5868C27.888 16.5868 28.5579 16.0341 28.3739 15.8666C28.1728 15.6655 27.4358 16.101 27.0673 16.3524C26.6819 16.637 14.9572 24.0405 14.9572 24.0405L9.01116 22.1979C8.34106 21.9971 8.34106 21.0758 9.31251 20.6737L31.1543 12.2654C32.109 11.7963 32.8626 12.8685 32.6618 13.7728Z" fill="#514AF3"/>
</g>
<defs>
<filter id="filter0_d_732_6052" x="0.318007" y="0.607612" width="43.8508" height="43.8507" filterUnits="userSpaceOnUse" color-interpolation-filters="sRGB">
<feFlood flood-opacity="0" result="BackgroundImageFix"/>
<feColorMatrix in="SourceAlpha" type="matrix" values="0 0 0 0 0 0 0 0 0 0 0 0 0 0 0 0 0 0 127 0" result="hardAlpha"/>
<feOffset dy="1.28973"/>
<feGaussianBlur stdDeviation="1.28973"/>
<feComposite in2="hardAlpha" operator="out"/>
<feColorMatrix type="matrix" values="0 0 0 0 0 0 0 0 0 0 0 0 0 0 0 0 0 0 0.05 0"/>
<feBlend mode="normal" in2="BackgroundImageFix" result="effect1_dropShadow_732_6052"/>
<feBlend mode="normal" in="SourceGraphic" in2="effect1_dropShadow_732_6052" result="shape"/>
</filter>
</defs>
</svg>
