<svg width="40" height="39" viewBox="0 0 40 39" fill="none" xmlns="http://www.w3.org/2000/svg">
<mask id="mask0_732_6069" style="mask-type:luminance" maskUnits="userSpaceOnUse" x="0" y="0" width="40" height="39">
<path d="M0.490234 0H39.1802V38.69H0.490234V0Z" fill="white"/>
</mask>
<g mask="url(#mask0_732_6069)">
<path d="M19.715 11.9875C23.7399 11.912 27.0604 15.1133 27.136 19.1356C27.136 19.2076 27.136 19.2762 27.136 19.3485C27.1806 23.3705 23.9565 26.6682 19.9313 26.7127C15.9064 26.7573 12.6067 23.5354 12.5619 19.5134C12.5619 19.4584 12.5619 19.4033 12.5619 19.3485C12.5173 15.3467 15.7104 12.0596 19.715 11.9875ZM20.4952 0.0172655C19.409 -0.0205177 18.3193 0.0342913 17.2435 0.17866C16.8619 0.230204 16.5492 0.497952 16.4358 0.862256L15.3633 4.35184C15.2704 4.64734 15.0436 4.8843 14.7514 4.98739C14.2463 5.16954 13.7513 5.37198 13.2665 5.60218C12.9848 5.73955 12.6548 5.73279 12.3798 5.58516L9.15546 3.87442C8.81517 3.696 8.40276 3.73028 8.10028 3.96374C6.71857 5.01141 5.48788 6.2445 4.4362 7.62195C4.20233 7.92771 4.16803 8.33633 4.34681 8.67638L6.06203 11.9017C6.20977 12.173 6.22354 12.5027 6.09634 12.7845C5.86271 13.2687 5.65639 13.7634 5.47761 14.2683C5.37445 14.5638 5.13732 14.7905 4.83834 14.8798L1.34954 15.9548C0.981707 16.0646 0.713536 16.3807 0.665456 16.7585C0.431827 18.4795 0.431827 20.2175 0.665456 21.9383C0.713536 22.3161 0.981707 22.6321 1.34954 22.742L4.83834 23.8172C5.13732 23.9065 5.37445 24.1332 5.47761 24.4285C5.65639 24.9334 5.86271 25.4281 6.09634 25.9125C6.22354 26.194 6.20977 26.5238 6.06203 26.7951L4.34681 30.0204C4.16803 30.3572 4.20233 30.7693 4.4362 31.0751C5.48788 32.4523 6.71857 33.6821 8.10028 34.733C8.40276 34.9667 8.81517 34.9975 9.15546 34.8224L12.3798 33.1119C12.6548 32.9642 12.9848 32.9572 13.2665 33.0913C13.7513 33.3213 14.2463 33.5275 14.7514 33.7061C15.0436 33.8092 15.2704 34.0462 15.3633 34.3414L16.4358 37.8312C16.5492 38.1988 16.8619 38.4668 17.2435 38.5148C18.962 38.7483 20.7048 38.7483 22.4235 38.5148C22.8016 38.4668 23.1179 38.1988 23.2313 37.8312L24.3038 34.3414C24.3964 34.0462 24.6233 33.8092 24.9155 33.7061C25.4208 33.5275 25.9191 33.3213 26.4004 33.0913C26.6823 32.9572 27.0088 32.9642 27.2838 33.1119L30.5114 34.8224C30.8517 34.9975 31.2641 34.9667 31.5666 34.733C32.9485 33.6821 34.179 32.4523 35.2309 31.0751C35.4645 30.7693 35.4988 30.3572 35.32 30.0204L33.6083 26.7951C33.4571 26.5238 33.4468 26.194 33.574 25.9125C33.8044 25.4281 34.0105 24.9334 34.1892 24.4285C34.2924 24.1332 34.5295 23.9065 34.8285 23.8172L38.3208 22.742C38.6851 22.6286 38.9533 22.3161 39.0049 21.9383C39.2353 20.2175 39.2353 18.4795 39.0049 16.7585C38.9533 16.3807 38.6851 16.0646 38.3208 15.9548L34.8285 14.8798C34.5295 14.7905 34.2924 14.5638 34.1892 14.2683C34.0105 13.7634 33.8044 13.2687 33.574 12.7845C33.4468 12.5027 33.4571 12.173 33.6083 11.9017L35.32 8.67638C35.4988 8.33633 35.4645 7.92771 35.2309 7.62195C34.179 6.2445 32.9485 5.01141 31.5666 3.96374C31.2641 3.73028 30.8517 3.696 30.5114 3.87442L27.2838 5.58516C27.0088 5.73279 26.6823 5.73955 26.4004 5.60568C25.9191 5.37548 25.4208 5.16954 24.9155 4.99089C24.6233 4.8878 24.3964 4.65084 24.3038 4.35184L23.2313 0.865522C23.1179 0.497952 22.8016 0.230204 22.4235 0.17866C21.784 0.0928319 21.1413 0.0377897 20.4952 0.0172655Z" fill="#514AF3"/>
</g>
</svg>
