<svg width="64" height="64" viewBox="0 0 64 64" fill="none" xmlns="http://www.w3.org/2000/svg">
<mask id="mask0_326_2183" style="mask-type:luminance" maskUnits="userSpaceOnUse" x="0" y="0" width="64" height="64">
<path d="M0.549805 0H63.9998V63.45H0.549805V0Z" fill="white"/>
</mask>
<g mask="url(#mask0_326_2183)">
<path d="M32.2747 7.93124C31.8854 7.93124 31.496 7.94062 31.1072 7.95995C30.7182 7.979 30.33 8.00771 29.9424 8.04579C29.5548 8.08388 29.1687 8.13163 28.7834 8.18876C28.3981 8.24589 28.0147 8.3124 27.6326 8.38828C27.2509 8.46445 26.8709 8.5497 26.4933 8.64433C26.1156 8.73896 25.7403 8.84267 25.3677 8.95576C24.995 9.06884 24.6253 9.19101 24.2588 9.32197C23.892 9.45322 23.529 9.59326 23.1692 9.74238C22.8095 9.8915 22.4535 10.0491 22.1014 10.2155C21.7495 10.3822 21.4018 10.5571 21.0584 10.7408C20.715 10.9242 20.3761 11.1161 20.0421 11.3162C19.7081 11.5166 19.3794 11.7249 19.0557 11.9411C18.7316 12.1576 18.4135 12.3817 18.1006 12.6135C17.788 12.8455 17.481 13.0851 17.1801 13.3321C16.8789 13.5791 16.5842 13.8334 16.2956 14.095C16.0073 14.3563 15.7252 14.625 15.4498 14.9001C15.1747 15.1755 14.9061 15.4576 14.6447 15.7459C14.3831 16.0345 14.1288 16.3292 13.8818 16.6304C13.6349 16.9312 13.3952 17.2383 13.1632 17.5509C12.9314 17.8638 12.7073 18.1819 12.4908 18.5059C12.2746 18.8297 12.0663 19.1584 11.8659 19.4924C11.6658 19.8264 11.4739 20.1653 11.2905 20.5087C11.1068 20.852 10.9319 21.1998 10.7652 21.5517C10.5988 21.9038 10.4412 22.2598 10.2921 22.6195C10.143 22.9793 10.0029 23.3423 9.87168 23.7091C9.74072 24.0756 9.61855 24.4453 9.50547 24.818C9.39238 25.1906 9.28867 25.5659 9.19404 25.9435C9.09941 26.3212 9.01416 26.7012 8.93799 27.0829C8.86211 27.4649 8.79561 27.8484 8.73848 28.2337C8.68135 28.6189 8.63359 29.0051 8.59551 29.3927C8.55742 29.7803 8.52871 30.1684 8.50967 30.5575C8.49033 30.9463 8.48096 31.3356 8.48096 31.725C8.48096 32.1143 8.49033 32.5034 8.50967 32.8925C8.52871 33.2812 8.55742 33.6697 8.59551 34.057C8.63359 34.4446 8.68135 34.831 8.73848 35.2163C8.79561 35.6013 8.86211 35.985 8.93799 36.3668C9.01416 36.7488 9.09941 37.1285 9.19404 37.5064C9.28867 37.8841 9.39238 38.2594 9.50547 38.632C9.61855 39.0044 9.74072 39.3741 9.87168 39.7409C10.0029 40.1074 10.143 40.4707 10.2921 40.8305C10.4412 41.1902 10.5988 41.5462 10.7652 41.898C10.9319 42.2502 11.1068 42.5976 11.2905 42.9413C11.4739 43.2847 11.6658 43.6233 11.8659 43.9573C12.0663 44.2913 12.2746 44.6203 12.4908 44.944C12.7073 45.2678 12.9314 45.5859 13.1632 45.8988C13.3952 46.2117 13.6349 46.5184 13.8818 46.8196C14.1288 47.1205 14.3831 47.4152 14.6447 47.7038C14.9061 47.9924 15.1747 48.2742 15.4498 48.5496C15.7252 48.825 16.0073 49.0933 16.2956 49.355C16.5842 49.6163 16.8789 49.8706 17.1801 50.1179C17.481 50.3648 17.788 50.6042 18.1006 50.8362C18.4135 51.0682 18.7316 51.2924 19.0557 51.5086C19.3794 51.7251 19.7081 51.9334 20.0421 52.1335C20.3761 52.3336 20.715 52.5255 21.0584 52.7092C21.4018 52.8926 21.7495 53.0678 22.1014 53.2342C22.4535 53.4006 22.8095 53.5585 23.1692 53.7076C23.529 53.8564 23.892 53.9965 24.2588 54.1277C24.6253 54.259 24.995 54.3811 25.3677 54.4942C25.7403 54.607 26.1156 54.711 26.4933 54.8056C26.8709 54.9003 27.2509 54.9855 27.6326 55.0614C28.0147 55.1376 28.3981 55.2041 28.7834 55.2612C29.1687 55.3183 29.5548 55.3658 29.9424 55.4042C30.33 55.4423 30.7182 55.471 31.1072 55.49C31.496 55.5091 31.8854 55.5187 32.2747 55.5187C32.6641 55.5187 33.0531 55.5091 33.4422 55.49C33.831 55.471 34.2194 55.4423 34.6067 55.4042C34.9943 55.3658 35.3808 55.3183 35.766 55.2612C36.151 55.2041 36.5348 55.1373 36.9165 55.0614C37.2985 54.9855 37.6782 54.9003 38.0562 54.8056C38.4338 54.711 38.8091 54.607 39.1817 54.4942C39.5541 54.3811 39.9238 54.259 40.2906 54.1277C40.6571 53.9965 41.0204 53.8564 41.3802 53.7076C41.7399 53.5585 42.0959 53.4006 42.4478 53.2342C42.7999 53.0678 43.1474 52.8926 43.491 52.7092C43.8344 52.5255 44.1731 52.3336 44.507 52.1335C44.841 51.9334 45.17 51.7251 45.4938 51.5086C45.8175 51.2924 46.1357 51.0682 46.4485 50.8362C46.7614 50.6042 47.0682 50.3648 47.3693 50.1179C47.6702 49.8706 47.965 49.6163 48.2535 49.355C48.5421 49.0933 48.8239 48.825 49.0993 48.5496C49.3747 48.2742 49.6431 47.9924 49.9047 47.7038C50.166 47.4152 50.4203 47.1205 50.6676 46.8196C50.9146 46.5184 51.1539 46.2117 51.3859 45.8988C51.618 45.5859 51.8421 45.2678 52.0583 44.944C52.2748 44.6203 52.4831 44.2913 52.6832 43.9573C52.8833 43.6233 53.0752 43.2847 53.2589 42.9413C53.4423 42.5976 53.6175 42.2502 53.7839 41.898C53.9503 41.5462 54.1082 41.1902 54.2573 40.8305C54.4062 40.4707 54.5462 40.1074 54.6775 39.7409C54.8087 39.3741 54.9309 39.0044 55.044 38.632C55.1567 38.2594 55.2608 37.8841 55.3554 37.5064C55.45 37.1285 55.5353 36.7488 55.6111 36.3668C55.6873 35.985 55.7538 35.6013 55.8109 35.2163C55.8681 34.831 55.9155 34.4446 55.9539 34.057C55.992 33.6697 56.0207 33.2812 56.0398 32.8925C56.0588 32.5034 56.0685 32.1143 56.0685 31.725C56.0685 31.3356 56.0588 30.9463 56.0395 30.5575C56.0204 30.1684 55.9917 29.7803 55.9536 29.393C55.9152 29.0054 55.8678 28.6189 55.8104 28.2337C55.7532 27.8487 55.6867 27.4652 55.6109 27.0832C55.5347 26.7012 55.4494 26.3215 55.3548 25.9438C55.2602 25.5662 55.1562 25.1909 55.0431 24.8183C54.93 24.4456 54.8081 24.0762 54.6769 23.7094C54.5456 23.3429 54.4056 22.9796 54.2565 22.6198C54.1073 22.26 53.9497 21.9044 53.783 21.5522C53.6166 21.2004 53.4414 20.8526 53.258 20.5093C53.0743 20.1659 52.8824 19.8272 52.6823 19.4933C52.4822 19.1593 52.2739 18.8303 52.0574 18.5065C51.8412 18.1828 51.6171 17.8646 51.3851 17.5518C51.153 17.2389 50.9137 16.9321 50.6664 16.6312C50.4194 16.3301 50.1651 16.0353 49.9038 15.7468C49.6422 15.4582 49.3738 15.1764 49.0984 14.901C48.8231 14.6259 48.5412 14.3572 48.2526 14.0959C47.9641 13.8343 47.6693 13.58 47.3685 13.333C47.0673 13.086 46.7606 12.8464 46.4477 12.6146C46.1351 12.3826 45.8169 12.1585 45.4932 11.942C45.1691 11.7258 44.8404 11.5175 44.5065 11.3174C44.1725 11.117 43.8338 10.9251 43.4904 10.7417C43.1471 10.558 42.7993 10.3831 42.4472 10.2164C42.0953 10.05 41.7394 9.89208 41.3796 9.74326C41.0198 9.59413 40.6568 9.4541 40.29 9.32285C39.9235 9.1916 39.5538 9.06943 39.1812 8.95634C38.8088 8.84326 38.4335 8.73954 38.0559 8.64492C37.6779 8.55029 37.2982 8.46474 36.9162 8.38886C36.5345 8.31298 36.151 8.24619 35.7657 8.18906C35.3805 8.13193 34.9943 8.08417 34.6067 8.04609C34.2191 8.00771 33.831 7.979 33.4422 7.95995C33.0531 7.94091 32.6641 7.93124 32.2747 7.93124ZM32.2747 16.8539C32.4153 16.8539 32.556 16.8577 32.6966 16.8659C32.8372 16.8738 32.9773 16.8861 33.117 16.9022C33.257 16.9184 33.3962 16.9386 33.5348 16.9629C33.6736 16.9872 33.8113 17.0153 33.9484 17.0476C34.0856 17.0798 34.2215 17.1158 34.3563 17.1559C34.4913 17.1961 34.6249 17.24 34.7573 17.2878C34.8898 17.3355 35.0207 17.3871 35.1499 17.4425C35.2794 17.4978 35.4071 17.557 35.5331 17.6197C35.6591 17.6827 35.7833 17.7489 35.9052 17.8189C36.0273 17.889 36.1475 17.9622 36.2655 18.0393C36.3833 18.116 36.4987 18.1963 36.6121 18.2801C36.7255 18.3636 36.8362 18.4503 36.9443 18.5405C37.0524 18.6305 37.1582 18.7233 37.261 18.8194C37.3639 18.9155 37.4638 19.0145 37.561 19.1165C37.658 19.2184 37.7521 19.323 37.8432 19.4303C37.9343 19.5378 38.0222 19.6476 38.1068 19.7601C38.1915 19.8724 38.273 19.9872 38.3512 20.1044C38.4291 20.2216 38.5038 20.3408 38.575 20.4621C38.6462 20.5837 38.7136 20.707 38.7777 20.8324C38.8416 20.9578 38.902 21.085 38.9588 21.2139C39.0153 21.3425 39.0684 21.4728 39.1173 21.605C39.1665 21.7368 39.2119 21.8701 39.2532 22.0046C39.2945 22.1391 39.332 22.2747 39.3657 22.4115C39.3991 22.548 39.4287 22.6857 39.4545 22.824C39.48 22.9626 39.5017 23.1015 39.5192 23.2412C39.5368 23.3809 39.5503 23.521 39.5597 23.6613C39.5693 23.8017 39.5746 23.9423 39.5761 24.0832C39.5773 24.2238 39.5746 24.3644 39.5676 24.5051C39.5608 24.6457 39.55 24.786 39.5351 24.9261C39.5201 25.0661 39.5011 25.2056 39.4782 25.3444C39.4551 25.4833 39.4281 25.6213 39.3971 25.7587C39.3663 25.8958 39.3312 26.032 39.2925 26.1674C39.2535 26.3027 39.2107 26.4369 39.1642 26.5696C39.1176 26.7023 39.0672 26.8339 39.0127 26.9637C38.9585 27.0934 38.9008 27.2218 38.839 27.3483C38.7774 27.4749 38.7121 27.5994 38.6433 27.7222C38.5744 27.8449 38.5021 27.9656 38.4262 28.0843C38.3503 28.2029 38.2712 28.3192 38.1886 28.4332C38.106 28.5472 38.0201 28.6588 37.9311 28.7678C37.842 28.8767 37.75 28.9831 37.6548 29.0868C37.5596 29.1905 37.4614 29.2913 37.3604 29.3894C37.2593 29.4873 37.1556 29.5825 37.0492 29.6745C36.9426 29.7665 36.8336 29.8553 36.722 29.9411C36.6101 30.0267 36.4961 30.1093 36.3798 30.1884C36.2632 30.2675 36.1445 30.3431 36.0238 30.4154C35.9031 30.4875 35.7804 30.5563 35.6556 30.6214C35.5308 30.6864 35.4042 30.7479 35.2759 30.8059C35.1476 30.8637 35.0175 30.9176 34.8859 30.968C34.7547 31.0183 34.6217 31.0646 34.4875 31.1074C34.3533 31.1499 34.2183 31.1886 34.0817 31.2234C33.9455 31.2583 33.8081 31.2891 33.6698 31.316C33.5318 31.3427 33.393 31.3655 33.2535 31.3843C33.1138 31.4033 32.974 31.418 32.8337 31.4285C32.6934 31.4393 32.5527 31.4461 32.4121 31.4487C32.2712 31.4511 32.1306 31.4496 31.9899 31.444C31.8493 31.4385 31.709 31.4288 31.5687 31.4153C31.4286 31.4016 31.2892 31.3837 31.15 31.362C31.0108 31.3403 30.8726 31.3145 30.7352 31.2847C30.5975 31.2551 30.4609 31.2214 30.3253 31.1836C30.1897 31.1461 30.0552 31.1045 29.9219 31.0591C29.7886 31.0134 29.657 30.9641 29.5267 30.9111C29.3963 30.8581 29.2674 30.8013 29.1402 30.7406C29.0134 30.6803 28.888 30.6161 28.7647 30.5484C28.6413 30.4805 28.52 30.4093 28.4008 30.3346C22.2739 26.453 24.9282 16.9283 32.2747 16.8539ZM40.8329 46.5961H23.7162C23.628 46.5958 23.5398 46.5934 23.4517 46.5891C23.3635 46.5847 23.2756 46.5779 23.1877 46.5691C23.1001 46.5603 23.0125 46.5492 22.9252 46.5363C22.8379 46.5231 22.7509 46.5079 22.6645 46.4906C22.578 46.4733 22.4919 46.4537 22.4064 46.432C22.3208 46.4106 22.2355 46.3869 22.1512 46.3611C22.0668 46.3353 21.983 46.3075 21.9001 46.2779C21.8169 46.248 21.7349 46.2161 21.6531 46.1821C21.5717 46.1484 21.4911 46.1124 21.4114 46.0746C21.3317 46.0368 21.2529 45.997 21.175 45.9554C21.0974 45.9138 21.0206 45.8701 20.945 45.8247C20.8694 45.7793 20.7947 45.7318 20.7215 45.6829C20.6482 45.6337 20.5762 45.5827 20.5053 45.5303C20.4344 45.4775 20.3649 45.4233 20.2967 45.3671C20.2284 45.3111 20.1616 45.2534 20.0963 45.1942C20.031 45.1348 19.9671 45.0738 19.905 45.0114C19.8426 44.949 19.7816 44.8851 19.7225 44.8195C19.6633 44.7542 19.6056 44.6874 19.5496 44.6191C19.4937 44.5509 19.4395 44.4814 19.387 44.4102C19.3343 44.3393 19.2836 44.2673 19.2347 44.194C19.1857 44.1205 19.1386 44.0461 19.0932 43.9702C19.0478 43.8946 19.0044 43.8179 18.9628 43.7399C18.9212 43.662 18.8814 43.5832 18.8439 43.5035C18.8061 43.4235 18.7703 43.343 18.7366 43.2615C18.7026 43.1798 18.671 43.0975 18.6411 43.0145C18.6115 42.9313 18.584 42.8475 18.5582 42.7632C18.5327 42.6788 18.509 42.5935 18.4876 42.508C18.4662 42.4225 18.4469 42.3363 18.4296 42.2499C18.4123 42.1632 18.3971 42.0765 18.3842 41.9891C18.3713 41.9018 18.3605 41.8142 18.3517 41.7264C18.3432 41.6385 18.3364 41.5506 18.332 41.4624C18.3279 41.3742 18.3256 41.286 18.3256 41.1978C18.3256 36.6249 21.6939 32.6766 26.527 30.8997C26.6263 30.9838 26.7276 31.0655 26.8305 31.1452C26.9336 31.2249 27.0382 31.3022 27.1445 31.3772C27.2509 31.4522 27.359 31.5249 27.4686 31.5952C27.5781 31.6655 27.6892 31.7335 27.8017 31.7991C27.9145 31.8644 28.0284 31.9274 28.1436 31.9878C28.259 32.0481 28.3756 32.1061 28.4934 32.1615C28.6111 32.2169 28.7304 32.2696 28.8505 32.3197C28.9706 32.3698 29.0919 32.4173 29.2141 32.4618C29.3362 32.5066 29.4596 32.5488 29.5838 32.5881C29.7077 32.6276 29.8325 32.6642 29.9585 32.6979C30.0842 32.7319 30.2105 32.763 30.3376 32.7914C30.4648 32.8198 30.5922 32.8453 30.7205 32.8679C30.8488 32.8907 30.9774 32.9106 31.1064 32.9276C31.2356 32.9449 31.3648 32.959 31.4945 32.9704C31.6243 32.9818 31.7541 32.9906 31.8842 32.9962C32.0143 33.002 32.1443 33.0047 32.2747 33.0047C32.4048 33.0047 32.5349 33.002 32.6649 32.9962C32.795 32.9906 32.9251 32.9818 33.0546 32.9704C33.1844 32.959 33.3139 32.9449 33.4428 32.9276C33.572 32.9106 33.7006 32.8907 33.8289 32.8679C33.9569 32.8453 34.0847 32.8198 34.2118 32.7914C34.3387 32.763 34.4652 32.7319 34.5909 32.6979C34.7166 32.6642 34.8414 32.6276 34.9656 32.5881C35.0898 32.5488 35.2129 32.5066 35.3351 32.4618C35.4575 32.4173 35.5785 32.3698 35.6989 32.3197C35.819 32.2696 35.938 32.2169 36.0558 32.1615C36.1738 32.1061 36.2904 32.0481 36.4056 31.9878C36.521 31.9274 36.635 31.8644 36.7475 31.7991C36.86 31.7335 36.971 31.6655 37.0806 31.5952C37.1901 31.5249 37.2982 31.4522 37.4046 31.3772C37.5109 31.3022 37.6158 31.2249 37.7187 31.1452C37.8218 31.0655 37.9229 30.9838 38.0222 30.8997C42.8553 32.6766 46.2238 36.6249 46.2238 41.1978C46.2235 41.286 46.2215 41.3742 46.2171 41.4624C46.2127 41.5506 46.2063 41.6385 46.1975 41.7264C46.189 41.8142 46.1781 41.9018 46.165 41.9891C46.1521 42.0765 46.1368 42.1632 46.1198 42.2499C46.1025 42.3363 46.0832 42.4225 46.0618 42.508C46.0401 42.5935 46.0167 42.6788 45.9909 42.7632C45.9654 42.8475 45.9379 42.9313 45.908 43.0145C45.8784 43.0975 45.8465 43.1798 45.8128 43.2615C45.7791 43.343 45.7434 43.4235 45.7056 43.5035C45.6678 43.5832 45.6282 43.662 45.5866 43.7399C45.545 43.8179 45.5017 43.8946 45.4563 43.9702C45.4109 44.0461 45.3637 44.1205 45.3148 44.194C45.2655 44.2673 45.2149 44.3393 45.1624 44.4102C45.1097 44.4811 45.0555 44.5509 44.9995 44.6191C44.9436 44.6874 44.8861 44.7542 44.827 44.8195C44.7675 44.8851 44.7068 44.949 44.6444 45.0114C44.582 45.0738 44.5182 45.1348 44.4528 45.1942C44.3875 45.2534 44.3207 45.3111 44.2524 45.3671C44.1845 45.4233 44.115 45.4775 44.0441 45.5303C43.9733 45.5827 43.9012 45.6337 43.8279 45.6829C43.7544 45.7318 43.68 45.7793 43.6044 45.8247C43.5288 45.8701 43.4521 45.9138 43.3741 45.9554C43.2965 45.997 43.2177 46.0368 43.138 46.0746C43.058 46.1124 42.9775 46.1484 42.896 46.1821C42.8146 46.2161 42.7322 46.248 42.6493 46.2779C42.5661 46.3075 42.4823 46.3353 42.398 46.3611C42.3136 46.3869 42.2286 46.4106 42.1431 46.432C42.0575 46.4537 41.9714 46.4733 41.885 46.4906C41.7982 46.5079 41.7115 46.5231 41.6242 46.5363C41.5369 46.5492 41.4493 46.5603 41.3614 46.5691C41.2735 46.5779 41.1857 46.5847 41.0975 46.5891C41.0093 46.5934 40.9211 46.5958 40.8329 46.5961Z" fill="#514AF3" fill-opacity="0.6"/>
</g>
</svg>
