<svg width="50" height="40" viewBox="0 0 50 40" fill="none" xmlns="http://www.w3.org/2000/svg">
<path d="M41.1765 37.1035C41.1765 37.6392 40.6563 38.0662 40.0264 38.0662H31.9449C31.3049 38.0662 30.7947 37.6308 30.7947 37.1035V27.0747C30.7947 25.4757 29.2446 24.178 27.3342 24.178H22.7135C20.8031 24.178 19.253 25.4757 19.253 27.0747V37.1035C19.253 37.6392 18.7328 38.0662 18.1026 38.0662H9.99155C9.3513 38.0662 8.84141 37.6308 8.84141 37.1035V17.774H6.53076V37.1035C6.53076 38.7023 8.08114 40 9.99155 40H18.0727C19.9832 40 21.5332 38.7023 21.5332 37.1035V27.0747C21.5332 26.5388 22.0535 26.1118 22.6834 26.1118H27.3041C27.9443 26.1118 28.4545 26.5472 28.4545 27.0747V37.1035C28.4545 38.7023 30.0046 40 31.915 40H39.9962C41.9066 40 43.4567 38.7023 43.4567 37.1035V17.774H41.1464L41.1765 37.1035Z" fill="black"/>
<mask id="mask0_283_4299" style="mask-type:luminance" maskUnits="userSpaceOnUse" x="0" y="0" width="50" height="19">
<path d="M0 0H50V18.5578H0V0Z" fill="white"/>
</mask>
<g mask="url(#mask0_283_4299)">
<path d="M27.2541 0.713277C25.944 -0.224413 24.0537 -0.224413 22.7433 0.713277L-0.00012207 17.0372L1.50001 18.5024L24.2535 2.1782C24.6936 1.86844 25.3238 1.86844 25.7539 2.1782L48.5074 18.5024L50.0079 17.0372L27.2541 0.713277Z" fill="black"/>
</g>
</svg>
