<svg width="50" height="38" viewBox="0 0 50 38" fill="none" xmlns="http://www.w3.org/2000/svg">
<mask id="mask0_283_4170" style="mask-type:luminance" maskUnits="userSpaceOnUse" x="14" y="5" width="22" height="30">
<path d="M14.1358 5.39598H35.7407V34.2097H14.1358V5.39598Z" fill="white"/>
</mask>
<g mask="url(#mask0_283_4170)">
<path d="M34.4596 5.58107C33.3379 5.14731 31.9654 5.48743 31.3949 6.34104L14.444 31.691C13.8735 32.5445 14.3208 33.5876 15.4427 34.0213C15.7735 34.1494 16.1261 34.2097 16.474 34.2097C17.3042 34.2097 18.1048 33.8634 18.5074 33.2621L35.4584 7.91154C36.0289 7.05848 35.5816 6.01484 34.4596 5.58107Z" fill="white"/>
</g>
<path d="M22.2883 13.9295C22.2883 10.3051 18.4103 7.35701 13.6441 7.35701C8.87804 7.35701 5 10.3051 5 13.9295C5 17.5536 8.87804 20.5022 13.6441 20.5022C18.4103 20.5022 22.2883 17.5536 22.2883 13.9295ZM13.6441 17.0362C11.3918 17.0362 9.5585 15.6422 9.5585 13.9295C9.5585 12.2162 11.3918 10.8229 13.6441 10.8229C15.8967 10.8229 17.73 12.2162 17.73 13.9295C17.73 15.6422 15.8967 17.0362 13.6441 17.0362Z" fill="white"/>
<mask id="mask1_283_4170" style="mask-type:luminance" maskUnits="userSpaceOnUse" x="27" y="19" width="18" height="14">
<path d="M27.7161 19.0938H45V32.2766H27.7161V19.0938Z" fill="white"/>
</mask>
<g mask="url(#mask1_283_4170)">
<path d="M36.3614 19.1008C31.5951 19.1008 27.717 22.0496 27.717 25.6735C27.717 29.2974 31.5944 32.2461 36.3614 32.2461C41.1275 32.2461 45.0056 29.2974 45.0056 25.6735C45.0056 22.049 41.1275 19.1008 36.3614 19.1008ZM36.3614 28.7795C34.1081 28.7795 32.2755 27.3862 32.2755 25.6735C32.2755 23.9602 34.1081 22.5669 36.3614 22.5669C38.6138 22.5669 40.4471 23.9602 40.4471 25.6735C40.4471 27.3862 38.6138 28.7795 36.3614 28.7795Z" fill="white"/>
</g>
</svg>
